<?xml version="1.0" encoding="UTF-8"?>
<svg width="1261px" height="997px" viewBox="0 0 1261 997" version="1.1" xmlns="http://www.w3.org/2000/svg" xmlns:xlink="http://www.w3.org/1999/xlink">
    <!-- Generator: Sketch 44.1 (41455) - http://www.bohemiancoding.com/sketch -->
    <title>5</title>
    <desc>Created with Sketch.</desc>
    <defs></defs>
    <g id="Page-1" stroke="none" stroke-width="1" fill="none" fill-rule="evenodd">
        <g id="Desktop-HD" transform="translate(-161.000000, -23.000000)">
            <g id="Confetti" transform="translate(159.000000, 23.000000)">
                <g id="5">
                    <rect id="shape16" fill="#FDADAB" opacity="0.77" transform="translate(706.811014, 94.944096) rotate(-72.000000) translate(-706.811014, -94.944096) " x="701.311014" y="80.9440964" width="11" height="28"></rect>
                    <rect id="shape15" fill="#FDADAB" opacity="0.89" transform="translate(438.549171, 577.500514) rotate(-281.000000) translate(-438.549171, -577.500514) " x="433.049171" y="564.000514" width="11" height="27"></rect>
                    <rect id="shape14" fill="#FDADAB" opacity="0.89" transform="translate(387.716086, 299.879141) rotate(-229.000000) translate(-387.716086, -299.879141) " x="379.716086" y="280.379141" width="16" height="39"></rect>
                    <rect id="shape13" fill="#FDADAB" opacity="0.83" transform="translate(544.483523, 163.266408) rotate(-12.000000) translate(-544.483523, -163.266408) " x="537.483523" y="145.766408" width="14" height="35"></rect>
                    <rect id="shape12" fill="#A5C1D9" opacity="0.87" transform="translate(1101.795722, 340.759103) rotate(-157.000000) translate(-1101.795722, -340.759103) " x="1095.29572" y="325.259103" width="13" height="31"></rect>
                    <rect id="shape11" fill="#A5C1D9" opacity="0.75" transform="translate(1251.096743, 49.708971) rotate(-38.000000) translate(-1251.096743, -49.708971) " x="1246.09674" y="36.708971" width="10" height="26"></rect>
                    <rect id="shape10" fill="#A5C1D9" opacity="0.79" transform="translate(392.804529, 981.082705) rotate(-239.000000) translate(-392.804529, -981.082705) " x="385.804529" y="963.582705" width="14" height="35"></rect>
                    <rect id="shape9" fill="#A5C1D9" opacity="0.9" transform="translate(110.306536, 281.602251) rotate(-76.000000) translate(-110.306536, -281.602251) " x="102.306536" y="262.102251" width="16" height="39"></rect>
                    <rect id="shape8" fill="#A5C1D9" transform="translate(187.811065, 12.367645) rotate(-108.000000) translate(-187.811065, -12.367645) " x="180.811065" y="-5.13235514" width="14" height="35"></rect>
                    <circle id="shape7" fill="#D3AAE0" opacity="0.72" transform="translate(1046.455735, 959.255364) rotate(-277.000000) translate(-1046.455735, -959.255364) " cx="1046.45573" cy="959.255364" r="10.5"></circle>
                    <circle id="shape6" fill="#D3AAE0" opacity="0.78" transform="translate(1053.176908, 617.912793) rotate(-120.000000) translate(-1053.176908, -617.912793) " cx="1053.17691" cy="617.912793" r="7.5"></circle>
                    <circle id="shape5" fill="#D3AAE0" opacity="0.74" transform="translate(789.646506, 828.894873) rotate(-96.000000) translate(-789.646506, -828.894873) " cx="789.646506" cy="828.894873" r="8.5"></circle>
                    <circle id="shape4" fill="#D3AAE0" opacity="0.95" transform="translate(871.656770, 523.871929) rotate(-348.000000) translate(-871.656770, -523.871929) " cx="871.65677" cy="523.871929" r="8.5"></circle>
                    <circle id="shape3" fill="#D3AAE0" opacity="0.8" transform="translate(625.650723, 434.644239) rotate(-183.000000) translate(-625.650723, -434.644239) " cx="625.650723" cy="434.644239" r="7"></circle>
                    <circle id="shape2" fill="#D3AAE0" opacity="0.72" transform="translate(74.589516, 780.809174) rotate(-331.000000) translate(-74.589516, -780.809174) " cx="74.5895158" cy="780.809174" r="10"></circle>
                    <circle id="shape1" fill="#D3AAE0" opacity="0.97" transform="translate(11.165417, 520.638052) rotate(-18.000000) translate(-11.165417, -520.638052) " cx="11.1654167" cy="520.638052" r="8.5"></circle>
                </g>
            </g>
        </g>
    </g>
</svg>