<?xml version="1.0" encoding="UTF-8"?>
<svg width="24px" height="24px" viewBox="0 0 24 24" version="1.1" xmlns="http://www.w3.org/2000/svg" xmlns:xlink="http://www.w3.org/1999/xlink">
    <!-- Generator: Sketch 45.2 (43514) - http://www.bohemiancoding.com/sketch -->
    <title>Fill 1</title>
    <desc>Created with Sketch.</desc>
    <defs></defs>
    <g id="New" stroke="none" stroke-width="1" fill="none" fill-rule="evenodd">
        <g id="2" transform="translate(-1166.000000, -28.000000)" fill="#FFFFFF">
            <g id="Header">
                <g id="GitHub-Buttons" transform="translate(964.000000, 28.000000)">
                    <path d="M213.999263,0 C207.373112,0 202,5.5085046 202,12.3048195 C202,17.7400586 205.437937,22.3512503 210.206998,23.9789518 C210.807366,24.0914936 211.026151,23.7115707 211.026151,23.385275 C211.026151,23.0937239 211.015838,22.3195271 211.009945,21.2930554 C207.672192,22.0362843 206.967956,19.6434498 206.967956,19.6434498 C206.422099,18.2219489 205.635359,17.8442919 205.635359,17.8442919 C204.545856,17.0806696 205.717864,17.0957758 205.717864,17.0957758 C206.922284,17.1833922 207.555801,18.3639479 207.555801,18.3639479 C208.626151,20.2439244 210.363904,19.7008536 211.04825,19.386643 C211.157274,18.5912974 211.466667,18.048982 211.809945,17.7415693 C209.145488,17.4311352 206.344015,16.3752063 206.344015,11.6605367 C206.344015,10.3175885 206.811786,9.21936201 207.579374,8.35905943 C207.455617,8.04787008 207.043831,6.79707019 207.696501,5.10290101 C207.696501,5.10290101 208.704236,4.7720735 210.996685,6.3642753 C211.953591,6.09085165 212.980479,5.95489514 214.000737,5.94960794 C215.019521,5.95489514 216.046409,6.09085165 217.004788,6.3642753 C219.295764,4.7720735 220.301289,5.10290101 220.301289,5.10290101 C220.956169,6.79707019 220.544383,8.04787008 220.420626,8.35905943 C221.189687,9.21936201 221.654512,10.3175885 221.654512,11.6605367 C221.654512,16.3872913 218.848619,17.4273587 216.175322,17.7317502 C216.606262,18.1116731 216.990055,18.8624551 216.990055,20.0105323 C216.990055,21.6548508 216.975322,22.9819374 216.975322,23.385275 C216.975322,23.7145919 217.19116,24.0975361 217.800368,23.9774412 C222.564273,22.3467184 226,17.738548 226,12.3048195 C226,5.5085046 220.626888,0 213.999263,0" id="Fill-1"></path>
                </g>
            </g>
        </g>
    </g>
</svg>