<?xml version="1.0" encoding="UTF-8"?>
<svg width="42px" height="68px" viewBox="0 0 42 68" version="1.1" xmlns="http://www.w3.org/2000/svg" xmlns:xlink="http://www.w3.org/1999/xlink">
    <!-- Generator: Sketch 45.2 (43514) - http://www.bohemiancoding.com/sketch -->
    <title>Icon</title>
    <desc>Created with Sketch.</desc>
    <defs></defs>
    <g id="New" stroke="none" stroke-width="1" fill="none" fill-rule="evenodd">
        <g id="2" transform="translate(-483.000000, -1223.000000)" fill-rule="nonzero" fill="#4D4444">
            <g id="Features" transform="translate(424.000000, 397.000000)">
                <g id="Cache" transform="translate(56.000000, 826.000000)">
                    <path d="M40.66,37.8 C41.64,36.96 42.2,35.7 42.2,34.3 L42.2,34.16 C42.2,31.5 39.82,29.4 37.3,29.4 L32.4,29.4 L32.4,26.6 C32.4,23.52 30.72,20.86 28.2,19.32 L28.2,4.06 C28.2,1.82 26.38,0 24.14,0 L24,0 C21.62,0 19.8,1.82 19.8,4.06 L19.8,19.32 C17.28,20.72 15.6,23.52 15.6,26.6 L15.6,29.4 L10.7,29.4 C8.04,29.4 5.8,31.5 5.8,34.16 L5.8,34.3 C5.8,35.7 6.36,36.82 7.34,37.8 L3,67.2 L29.46,67.2 L33.24,60.34 L36.88,67.2 L45,67.2 L40.66,37.8 Z M22.6,18.34 L22.6,4.06 C22.6,3.36 23.16,2.8 23.86,2.8 L24,2.8 C24.7,2.8 25.26,3.36 25.26,4.06 L25.26,18.2 C25.12,18.2 25.12,18.2 24.98,18.2 C24.84,18.2 24.56,18.2 24.28,18.2 C24.14,18.2 23.86,18.2 23.72,18.2 C23.72,18.2 23.72,18.2 23.72,18.2 C23.72,18.2 23.72,18.2 23.72,18.2 C23.58,18.2 23.44,18.2 23.16,18.2 C22.88,18.2 22.74,18.2 22.46,18.2 C22.74,18.34 22.74,18.34 22.6,18.34 Z M18.4,26.6 C18.4,24.36 19.8,22.4 21.76,21.42 C22.88,21 24,20.86 25.12,21 C25.12,21 25.26,21 25.26,21 C25.54,21.14 25.82,21.14 26.24,21.28 C28.2,22.12 29.6,24.08 29.6,26.46 L29.6,29.26 L18.4,29.26 L18.4,26.6 Z M8.6,34.16 C8.6,33.04 9.72,32.2 10.7,32.2 L15.6,32.2 L32.4,32.2 L37.3,32.2 C38.42,32.2 39.4,33.04 39.4,34.16 L39.4,34.3 C39.4,35.42 38.28,36.26 37.3,36.26 L10.7,36.26 C9.58,36.26 8.6,35.42 8.6,34.3 L8.6,34.16 Z M33.24,54.46 L27.78,64.4 L6.22,64.4 L10,39.2 L10.84,39.2 L37.3,39.2 L38,39.2 L41.78,64.4 L38.42,64.4 L33.24,54.46 Z" id="Icon"></path>
                </g>
            </g>
        </g>
    </g>
</svg>