<?xml version="1.0" encoding="UTF-8"?>
<svg width="160px" height="33px" viewBox="0 0 160 33" version="1.1" xmlns="http://www.w3.org/2000/svg" xmlns:xlink="http://www.w3.org/1999/xlink">
    <!-- Generator: Sketch 45.2 (43514) - http://www.bohemiancoding.com/sketch -->
    <title>Icon</title>
    <desc>Created with Sketch.</desc>
    <defs></defs>
    <g id="New" stroke="none" stroke-width="1" fill="none" fill-rule="evenodd">
        <g id="2" transform="translate(-639.000000, -1240.000000)" fill-rule="nonzero" fill="#4D4444">
            <g id="Features" transform="translate(424.000000, 397.000000)">
                <g id="Dev-Server" transform="translate(215.000000, 839.000000)">
                    <g id="Icon" transform="translate(0.029297, 4.564551)">
                        <path d="M9.8288015,0.357410964 L0.268058223,5.12289048 C0.0893527409,5.21224322 0,5.36116446 0,5.53986994 L0,26.6271168 C0,26.8058223 0.0893527409,26.9547435 0.268058223,27.0440963 L9.8288015,31.8095758 C10.126644,31.958497 10.5138392,31.7500073 10.5138392,31.3925963 L10.5138392,0.774390421 C10.4840549,0.416979458 10.126644,0.178705482 9.8288015,0.357410964 Z M11.824346,31.8095758 L21.3850893,27.0440963 C21.5340106,26.9547435 21.6531476,26.8058223 21.6531476,26.6271168 L21.6531476,16.3813358 C21.6531476,16.2026304 21.5637948,16.0537091 21.3850893,15.9643564 L11.824346,11.1988769 C11.5265036,11.0499556 11.1393084,11.2584454 11.1393084,11.6158563 L11.1393084,31.4223806 C11.1690926,31.7500073 11.5265036,31.958497 11.824346,31.8095758 Z M38.6301683,10.6627604 C41.846867,10.6627604 43.5743533,11.8541303 43.5743533,14.8623392 C43.5743533,16.8280995 42.9488841,17.7811954 41.6681615,18.4960174 C43.0680211,19.0321338 43.9913328,20.0447982 43.9913328,22.2488325 C43.9913328,25.5548839 41.9957882,26.8356065 38.8386581,26.8356065 L32.4648292,26.8356065 L32.4648292,10.6627604 L38.6301683,10.6627604 Z M35.1156272,12.9263632 L35.1156272,17.5727057 L38.6003841,17.5727057 C40.2087334,17.5727057 40.9235553,16.768531 40.9235553,15.189966 C40.9235553,13.6411851 40.1193807,12.9561474 38.5110313,12.9561474 L35.1156272,12.9561474 L35.1156272,12.9263632 Z M35.1156272,19.77674 L35.1156272,24.5720038 L38.6897368,24.5720038 C40.3278704,24.5720038 41.2809663,24.0656716 41.2809663,22.0999113 C41.2809663,20.2532879 39.9108909,19.7469557 38.6301683,19.7469557 L35.1156272,19.7469557 L35.1156272,19.77674 Z M46.6421308,15.0410447 L49.203576,15.0410447 L49.203576,16.4706886 C49.203576,16.4706886 51.1991205,15.1601817 53.2244493,14.8027707 L53.2244493,17.364216 C51.0799836,17.7811954 49.2333602,19.2406235 49.2333602,19.2406235 L49.2333602,26.8653908 L46.671915,26.8653908 L46.671915,15.0410447 L46.6421308,15.0410447 Z M108.831638,15.0410447 L111.393084,15.0410447 L111.393084,16.4706886 C111.393084,16.4706886 113.388628,15.1601817 115.413957,14.8027707 L115.413957,17.364216 C113.269491,17.7811954 111.422868,19.2406235 111.422868,19.2406235 L111.422868,26.8653908 L108.861423,26.8653908 L108.861423,15.0410447 L108.831638,15.0410447 Z M65.0487954,20.8787571 C65.0487954,24.8102777 63.8574255,27.1036647 59.7769837,27.1036647 C55.7263261,27.1036647 54.505172,24.7804935 54.505172,20.8787571 C54.505172,17.0365893 55.8156788,14.7729865 59.7769837,14.7729865 C63.7382885,14.7729865 65.0487954,17.0365893 65.0487954,20.8787571 Z M62.4575659,20.8787571 C62.4575659,18.1386064 61.861881,16.9472365 59.7769837,16.9472365 C57.6920864,16.9472365 57.0964014,18.1386064 57.0964014,20.8787571 C57.0964014,23.6189079 57.5729494,24.9294147 59.7769837,24.9294147 C61.981018,24.9294147 62.4575659,23.6189079 62.4575659,20.8787571 Z M69.1888057,15.0410447 L71.0652133,24.6613565 L71.5417612,24.6613565 L73.7755798,15.2793187 L76.4263777,15.2793187 L78.6601963,24.6613565 L79.1367442,24.6613565 L80.9833675,15.0410447 L83.5448128,15.0410447 L81.042936,26.8653908 L76.9624942,26.8653908 L75.1158709,18.7640756 L73.2692476,26.8653908 L69.1888057,26.8653908 L66.686929,15.0410447 L69.1888057,15.0410447 Z M89.7399361,17.0961578 C88.3102923,17.0961578 87.6848231,17.4237845 87.6848231,18.4066646 C87.6848231,19.1810551 88.1911553,19.3895448 90.4845423,19.8065242 C93.3140458,20.3128564 94.3267102,20.9978941 94.3267102,23.3806339 C94.3267102,26.1505688 92.5694396,27.133449 89.6505834,27.133449 C88.0124498,27.133449 85.2722991,26.6271168 85.2722991,26.6271168 L85.3616518,24.482651 C85.3616518,24.482651 88.1911553,24.8698462 89.4123094,24.8698462 C91.1100115,24.8698462 91.7652649,24.5124353 91.7652649,23.4699866 C91.7652649,22.6360277 91.3780697,22.3977537 89.0251142,22.0105585 C86.4338847,21.5935791 85.0935936,21.0276784 85.0935936,18.5258016 C85.0935936,15.8452194 87.1784909,14.8623392 89.5016622,14.8623392 C91.2291485,14.8623392 93.939515,15.3686714 93.939515,15.3686714 L93.939515,17.483353 C93.939515,17.483353 91.1397957,17.0961578 89.7399361,17.0961578 Z M105.912782,24.6613565 L105.972351,26.5675483 C105.972351,26.5675483 103.291769,27.1036647 101.206871,27.1036647 C97.6625458,27.1036647 96.2924705,25.2272572 96.2924705,21.0574626 C96.2924705,16.7387468 98.168878,14.7729865 101.415361,14.7729865 C104.721412,14.7729865 106.38933,16.5004728 106.38933,20.1937194 L106.210625,22.0403428 L98.8837,22.0403428 C98.9134842,23.9167503 99.6283061,24.8698462 101.564282,24.8698462 C103.410905,24.8698462 105.912782,24.6613565 105.912782,24.6613565 Z M103.827885,20.0447982 C103.827885,17.6918427 103.113063,16.887668 101.385577,16.887668 C99.6283061,16.887668 98.8539157,17.7514112 98.8241315,20.0447982 L103.827885,20.0447982 Z M125.242759,16.4706886 C125.242759,16.4706886 122.711098,16.0834934 121.162317,16.0834934 C119.702889,16.0834934 118.362597,16.4706886 118.362597,18.0790379 C118.362597,19.300192 118.958282,19.657603 121.519728,20.0745825 C124.557721,20.5809147 125.689522,21.1170311 125.689522,23.3806339 C125.689522,26.1505688 123.962036,27.0440963 121.132532,27.0440963 C119.702889,27.0440963 117.081875,26.6271168 117.081875,26.6271168 L117.171228,25.3761784 C117.171228,25.3761784 119.822026,25.7633736 121.013395,25.7633736 C123.038724,25.7633736 124.230094,25.2868257 124.230094,23.4402024 C124.230094,22.0105585 123.515272,21.712716 120.864474,21.3255208 C118.154108,20.9085414 116.903169,20.4022092 116.903169,18.1088222 C116.903169,15.5473769 119.017851,14.7729865 121.072964,14.7729865 C122.860019,14.7729865 125.242759,15.1601817 125.242759,15.1601817 L125.242759,16.4706886 Z M131.795293,25.6144524 L132.659036,25.6144524 L135.816166,15.0410447 L137.24581,15.0410447 L132.212272,32.1074182 L130.782628,32.1074182 L132.301625,26.8356065 L130.663491,26.8356065 L127.178735,15.0112605 L128.667947,15.0112605 L131.795293,25.6144524 Z M139.658334,26.8653908 L139.658334,15.0410447 L141.058194,15.0410447 L141.058194,15.9047879 C141.058194,15.9047879 143.053738,14.8027707 144.900362,14.8027707 C148.146844,14.8027707 148.861666,16.3217673 148.861666,20.6404832 L148.861666,26.8653908 L147.432023,26.8653908 L147.432023,20.7000516 C147.432023,17.2152948 147.044827,16.0537091 144.691872,16.0537091 C142.845248,16.0537091 141.058194,17.0365893 141.058194,17.0365893 L141.058194,26.8058223 L139.658334,26.8058223 L139.658334,26.8653908 Z M159.703132,15.1006132 L159.643564,16.2919831 C159.643564,16.2919831 157.767156,16.0537091 156.873629,16.0537091 C154.044125,16.0537091 153.210166,17.3046475 153.210166,20.7000516 C153.210166,24.4230825 153.776067,25.7931579 156.873629,25.7931579 C157.767156,25.7931579 159.673348,25.5846682 159.673348,25.5846682 L159.732917,26.776038 C159.732917,26.776038 157.618235,27.0738805 156.605571,27.0738805 C152.763403,27.0738805 151.750738,25.3761784 151.750738,20.7298359 C151.750738,16.4111201 153.120814,14.8027707 156.635355,14.8027707 C157.648019,14.8027707 159.703132,15.1006132 159.703132,15.1006132 Z" id="Shape"></path>
                    </g>
                </g>
            </g>
        </g>
    </g>
</svg>