<?xml version="1.0" encoding="UTF-8"?>
<svg width="152px" height="29px" viewBox="0 0 152 29" version="1.1" xmlns="http://www.w3.org/2000/svg" xmlns:xlink="http://www.w3.org/1999/xlink">
    <!-- Generator: Sketch 45.2 (43514) - http://www.bohemiancoding.com/sketch -->
    <title>Icon</title>
    <desc>Created with Sketch.</desc>
    <defs>
        <linearGradient x1="50%" y1="-38.9062301%" x2="50%" y2="114.299119%" id="linearGradient-1">
            <stop stop-color="#5B6FB5" offset="0%"></stop>
            <stop stop-color="#4F7DBF" offset="67.5%"></stop>
            <stop stop-color="#428BCA" offset="100%"></stop>
        </linearGradient>
        <linearGradient x1="49.9996375%" y1="-38.9097816%" x2="49.9996375%" y2="114.334376%" id="linearGradient-2">
            <stop stop-color="#5B6FB5" offset="0%"></stop>
            <stop stop-color="#4F7DBF" offset="67.5%"></stop>
            <stop stop-color="#428BCA" offset="100%"></stop>
        </linearGradient>
        <linearGradient x1="50%" y1="-38.9097816%" x2="50%" y2="114.334376%" id="linearGradient-3">
            <stop stop-color="#5B6FB5" offset="0%"></stop>
            <stop stop-color="#4F7DBF" offset="67.5%"></stop>
            <stop stop-color="#428BCA" offset="100%"></stop>
        </linearGradient>
        <linearGradient x1="50.0003445%" y1="-40.401982%" x2="50.0003445%" y2="117.122793%" id="linearGradient-4">
            <stop stop-color="#5B6FB5" offset="0%"></stop>
            <stop stop-color="#4F7DBF" offset="67.5%"></stop>
            <stop stop-color="#428BCA" offset="100%"></stop>
        </linearGradient>
        <linearGradient x1="50.0010738%" y1="-39.5817796%" x2="50.0010738%" y2="114.738974%" id="linearGradient-5">
            <stop stop-color="#5B6FB5" offset="0%"></stop>
            <stop stop-color="#4F7DBF" offset="67.5%"></stop>
            <stop stop-color="#428BCA" offset="100%"></stop>
        </linearGradient>
        <linearGradient x1="49.9996895%" y1="-43.6537945%" x2="49.9996895%" y2="117.539288%" id="linearGradient-6">
            <stop stop-color="#5B6FB5" offset="0%"></stop>
            <stop stop-color="#4F7DBF" offset="67.5%"></stop>
            <stop stop-color="#428BCA" offset="100%"></stop>
        </linearGradient>
        <linearGradient x1="50.0047704%" y1="-10.7878492%" x2="50.0047704%" y2="112.68378%" id="linearGradient-7">
            <stop stop-color="#5B6FB5" offset="0%"></stop>
            <stop stop-color="#4F7DBF" offset="67.5%"></stop>
            <stop stop-color="#428BCA" offset="100%"></stop>
        </linearGradient>
        <linearGradient x1="49.9968217%" y1="-0.00375023439%" x2="49.9968217%" y2="100.000417%" id="linearGradient-8">
            <stop stop-color="#5B6FB5" offset="0%"></stop>
            <stop stop-color="#4F7DBF" offset="67.5%"></stop>
            <stop stop-color="#428BCA" offset="100%"></stop>
        </linearGradient>
        <linearGradient x1="50.0031312%" y1="-27.1365736%" x2="50.0031312%" y2="124.762357%" id="linearGradient-9">
            <stop stop-color="#5B6FB5" offset="0%"></stop>
            <stop stop-color="#4F7DBF" offset="67.5%"></stop>
            <stop stop-color="#428BCA" offset="100%"></stop>
        </linearGradient>
        <linearGradient x1="49.9975072%" y1="-36.8491003%" x2="49.9975072%" y2="134.197043%" id="linearGradient-10">
            <stop stop-color="#5B6FB5" offset="0%"></stop>
            <stop stop-color="#4F7DBF" offset="67.5%"></stop>
            <stop stop-color="#428BCA" offset="100%"></stop>
        </linearGradient>
        <linearGradient x1="49.9984942%" y1="-45.8667348%" x2="49.9984942%" y2="142.951658%" id="linearGradient-11">
            <stop stop-color="#5B6FB5" offset="0%"></stop>
            <stop stop-color="#4F7DBF" offset="67.5%"></stop>
            <stop stop-color="#428BCA" offset="100%"></stop>
        </linearGradient>
        <linearGradient x1="50%" y1="-62.7756443%" x2="50%" y2="159.318466%" id="linearGradient-12">
            <stop stop-color="#5B6FB5" offset="0%"></stop>
            <stop stop-color="#4F7DBF" offset="67.5%"></stop>
            <stop stop-color="#428BCA" offset="100%"></stop>
        </linearGradient>
    </defs>
    <g id="New" stroke="none" stroke-width="1" fill="none" fill-rule="evenodd">
        <g id="2" transform="translate(-644.000000, -555.000000)" fill-rule="nonzero">
            <g id="Features" transform="translate(424.000000, 397.000000)">
                <g id="CSSNext" transform="translate(220.000000, 158.000000)">
                    <g id="Icon">
                        <path d="M8.96218367,9.56763265 C8.18983673,9.56763265 7.54177551,9.744 7.02155102,10.0967347 C6.49718367,10.4494694 6.06987755,10.9028163 5.742,11.4591429 C5.4117551,12.0178367 5.17857143,12.6309796 5.04244898,13.3009388 C4.90691837,13.9738571 4.83885714,14.6337551 4.83885714,15.2960204 C4.83885714,15.928102 4.90691837,16.5779388 5.04244898,17.2342857 C5.17797959,17.8977347 5.4005102,18.4943061 5.70708163,19.0269592 C6.01661224,19.5619796 6.43030612,19.9981633 6.95112245,20.3390612 C7.47430612,20.680551 8.11053061,20.8492245 8.8627551,20.8492245 C10.0192041,20.8492245 10.9116939,20.524898 11.538449,19.8786122 C12.1616531,19.2281837 12.5552245,18.3611429 12.7150204,17.2703878 L17.3857959,17.2703878 C17.0656122,19.6093265 16.1577347,21.3925306 14.6586122,22.6217755 C13.1565306,23.8474694 11.2377959,24.4600204 8.89530612,24.4600204 C7.57728571,24.4600204 6.36697959,24.2410408 5.26557143,23.7971633 C4.16238776,23.3562449 3.22314286,22.7348163 2.45257143,21.9376122 C1.682,21.1415918 1.07773469,20.1934694 0.647469388,19.0920612 C0.213653061,17.9930204 0,16.783898 0,15.4617347 C0,14.0999184 0.198265306,12.8333878 0.596571429,11.6621429 C0.993693878,10.490898 1.57902041,9.48122449 2.35314286,8.62720408 C3.12489796,7.77318367 4.06769388,7.11269388 5.1797551,6.63212245 C6.29359184,6.15510204 7.56840816,5.91659184 8.99887755,5.91659184 C10.0440612,5.91659184 11.049,6.05567347 12.0160612,6.32732653 C12.9807551,6.59779592 13.8454286,7.01444898 14.6065306,7.57018367 C15.3670408,8.12710204 15.9866939,8.82132653 16.4643061,9.65108163 C16.9419184,10.4796531 17.2153469,11.4626939 17.2828163,12.5996122 L12.5439796,12.5996122 C12.2232041,10.5790816 11.0306531,9.56763265 8.96218367,9.56763265 Z" id="Shape" fill="url(#linearGradient-1)"></path>
                        <path d="M24.1848163,19.6412857 C24.3984694,20.0182857 24.6784082,20.3230816 25.019898,20.5621837 C25.3596122,20.8006939 25.7525918,20.9788367 26.1964694,21.0924694 C26.6391633,21.2037347 27.0990204,21.2587755 27.5766327,21.2587755 C27.9181224,21.2587755 28.2761837,21.2220816 28.6496327,21.1398163 C29.0260408,21.0622857 29.3657551,20.9368163 29.6735102,20.7651837 C29.9812653,20.5959184 30.2369388,20.3680612 30.4405306,20.0827959 C30.645898,19.8022653 30.747102,19.4447959 30.747102,19.0092041 C30.747102,18.2824286 30.2647551,17.7391224 29.2976939,17.3751429 C28.3324082,17.0117551 26.9853878,16.6454082 25.2584082,16.2820204 C24.5541224,16.1251837 23.8658163,15.9346122 23.1958571,15.7209592 C22.5247143,15.5049388 21.927551,15.2184898 21.4067347,14.8669388 C20.883551,14.5142041 20.4633469,14.0732857 20.1443469,13.5382653 C19.8253469,13.0050204 19.6667347,12.3516327 19.6667347,11.578102 C19.6667347,10.4429592 19.8880816,9.50963265 20.3313673,8.78344898 C20.7752449,8.05608163 21.3611633,7.48259184 22.0879388,7.06061224 C22.8147143,6.64159184 23.6320408,6.34508163 24.5428776,6.17522449 C25.4519388,6.003 26.3834898,5.916 27.3381224,5.916 C28.2915714,5.916 29.2189796,6.00773469 30.1167959,6.18883673 C31.0146122,6.37112245 31.8159592,6.67828571 32.5190612,7.10914286 C33.2221633,7.54 33.8080816,8.1134898 34.2732653,8.82902041 C34.7396327,9.54395918 35.0183878,10.4500612 35.1095306,11.5396327 L30.5074082,11.5396327 C30.4399388,10.6080816 30.0860204,9.97718367 29.4521633,9.64753061 C28.8153469,9.3202449 28.0631224,9.15393878 27.202,9.15393878 C26.9285714,9.15393878 26.6332449,9.16991837 26.3154286,9.20306122 C25.9952449,9.23916327 25.7052449,9.31136735 25.4454286,9.425 C25.1850204,9.53804082 24.9630816,9.70493878 24.7807959,9.91977551 C24.5985102,10.1346122 24.5073673,10.4257959 24.5073673,10.7897755 C24.5073673,11.2212245 24.6671633,11.5733673 24.9843878,11.8473878 C25.3033878,12.1178571 25.719449,12.3409796 26.2284286,12.5108367 C26.7403673,12.6836531 27.3256939,12.8363469 27.9844082,12.9712857 C28.6437143,13.1068163 29.3148571,13.2571429 29.9960612,13.4139796 C30.7003469,13.5714082 31.3868776,13.7673061 32.0580204,13.9945714 C32.7279796,14.2194694 33.3251429,14.521898 33.8477347,14.8947551 C34.3703265,15.2735306 34.7911224,15.7393061 35.1095306,16.2903061 C35.4285306,16.8507755 35.5871429,17.5390816 35.5871429,18.3546327 C35.5871429,19.5140408 35.3527755,20.4852449 34.8875918,21.2706122 C34.423,22.0559796 33.814,22.6833265 33.0647347,23.1627143 C32.3136939,23.6403265 31.4561224,23.9729388 30.4902449,24.1694286 C29.5249592,24.3605918 28.5413265,24.4546939 27.5423061,24.4546939 C26.5190204,24.4546939 25.5188163,24.3552653 24.5434694,24.1493061 C23.5651633,23.9427551 22.6963469,23.602449 21.9352449,23.1260204 C21.173551,22.6484082 20.5467959,22.0192857 20.0597143,21.2345102 C19.571449,20.452102 19.3039388,19.4672857 19.259551,18.2853878 L23.8604898,18.2853878 C23.8587143,18.8198163 23.9687959,19.2666531 24.1848163,19.6412857 Z" id="Shape" fill="url(#linearGradient-2)"></path>
                        <path d="M42.4903265,19.6412857 C42.7039796,20.0182857 42.9839184,20.3230816 43.3254082,20.5621837 C43.666898,20.8012857 44.058102,20.9788367 44.5013878,21.0924694 C44.9440816,21.2037347 45.4039388,21.2587755 45.881551,21.2587755 C46.2230408,21.2587755 46.581102,21.2220816 46.9551429,21.1398163 C47.3327347,21.0622857 47.6706735,20.9368163 47.9802041,20.7651837 C48.2867755,20.5959184 48.5418571,20.3680612 48.7472245,20.0827959 C48.9508163,19.8022653 49.0537959,19.4447959 49.0537959,19.0092041 C49.0537959,18.2824286 48.571449,17.7391224 47.6026122,17.3751429 C46.6373265,17.0117551 45.2903061,16.6454082 43.5633265,16.2820204 C42.8590408,16.1251837 42.1707347,15.9346122 41.5013673,15.7209592 C40.8308163,15.5049388 40.2342449,15.2184898 39.7116531,14.8669388 C39.1884694,14.5142041 38.7682653,14.0732857 38.4510408,13.5382653 C38.1308571,13.0050204 37.9734286,12.3516327 37.9734286,11.578102 C37.9734286,10.4429592 38.1924082,9.50963265 38.6380612,8.78344898 C39.0807551,8.05608163 39.6660816,7.48259184 40.3928571,7.06061224 C41.1208163,6.64159184 41.9381429,6.34508163 42.8477959,6.17522449 C43.7562653,6.003 44.689,5.916 45.642449,5.916 C46.5964898,5.916 47.523898,6.00773469 48.4211224,6.18883673 C49.3183469,6.37112245 50.1202857,6.67828571 50.8251633,7.10914286 C51.5282653,7.54 52.1135918,8.1134898 52.5781837,8.82902041 C53.044551,9.54395918 53.3233061,10.4500612 53.414449,11.5396327 L48.8135102,11.5396327 C48.745449,10.6080816 48.3921224,9.97718367 47.755898,9.64753061 C47.1196735,9.3202449 46.367449,9.15393878 45.5063265,9.15393878 C45.232898,9.15393878 44.9375714,9.16991837 44.6197551,9.20306122 C44.3007551,9.23916327 44.0107551,9.31136735 43.7497551,9.425 C43.4905306,9.53804082 43.2668163,9.70493878 43.0851224,9.91977551 C42.9028367,10.1346122 42.8122857,10.4257959 42.8122857,10.7897755 C42.8122857,11.2212245 42.9714898,11.5733673 43.2893061,11.8473878 C43.6094898,12.1178571 44.0249592,12.3409796 44.5339388,12.5108367 C45.0464694,12.6836531 45.6317959,12.8363469 46.2899184,12.9712857 C46.9492245,13.1068163 47.621551,13.2571429 48.3015714,13.4139796 C49.0058571,13.5714082 49.6941633,13.7673061 50.3635306,13.9945714 C51.0334898,14.2194694 51.6306531,14.521898 52.1532449,14.8947551 C52.6758367,15.2735306 53.0960408,15.7393061 53.4168163,16.2903061 C53.7346327,16.8507755 53.8944286,17.5390816 53.8944286,18.3546327 C53.8944286,19.5140408 53.6600612,20.4852449 53.1948776,21.2706122 C52.7285102,22.0559796 52.1212857,22.6833265 51.3708367,23.1627143 C50.6197959,23.6403265 49.7628163,23.9729388 48.7963469,24.1694286 C47.8304694,24.3605918 46.8474286,24.4546939 45.8495918,24.4546939 C44.8251224,24.4546939 43.8243265,24.3552653 42.8495714,24.1493061 C41.8712653,23.9427551 41.0030408,23.602449 40.2413469,23.1260204 C39.4790612,22.6484082 38.852898,22.0192857 38.3658163,21.2345102 C37.877551,20.452102 37.6100408,19.4672857 37.5668367,18.2853878 L42.1665918,18.2853878 C42.1654082,18.8198163 42.2731224,19.2666531 42.4903265,19.6412857 Z" id="Shape" fill="url(#linearGradient-3)"></path>
                        <path d="M61.2213673,6.39716327 L60.6762857,9.05746939 L60.7443469,9.05746939 C61.4723061,8.03418367 62.3920204,7.26834694 63.5058571,6.75759184 C64.6185102,6.24446939 65.7891633,5.98879592 67.0166327,5.98879592 C68.6761429,5.98879592 69.9083469,6.35218367 70.7162041,7.08014286 C71.5205102,7.80869388 71.9259184,8.95508163 71.9259184,10.5252245 C71.9259184,10.9105102 71.8797551,11.4106122 71.7903878,12.0237551 C71.6986531,12.6380816 71.5737755,13.2873265 71.4127959,13.9685306 L69.2650204,24.0244286 L66.3673878,24.0244286 L68.617551,13.7288367 C68.6412245,13.5453673 68.6743673,13.3352653 68.7199388,13.0973469 C68.7643265,12.8582449 68.8104898,12.6084898 68.8554694,12.3492653 C68.9028163,12.0900408 68.9430612,11.8373265 68.9750204,11.5982245 C69.0099388,11.3603061 69.0259184,11.1608571 69.0259184,11.0022449 C69.0259184,10.1618367 68.7305918,9.54218367 68.1399388,9.14446939 C67.5492857,8.74616327 66.8225102,8.54730612 65.9584286,8.54730612 C65.1635918,8.54730612 64.3740816,8.74083673 63.5887143,9.12671429 C62.8045306,9.51140816 62.1404898,10.0002653 61.5954082,10.5909184 C61.0728163,11.0466327 60.6632653,11.5982245 60.3691224,12.245102 C60.0737959,12.8937551 59.8352857,13.5672653 59.6535918,14.2721429 L57.6076122,24.0244286 L54.744898,24.0244286 L58.4261224,6.40012245 L61.2207755,6.40012245 L61.2213673,6.39716327 L61.2213673,6.39716327 Z" id="Shape" fill="url(#linearGradient-4)"></path>
                        <path d="M77.074898,17.6136531 C77.074898,18.291898 77.1997755,18.9032653 77.4495306,19.4388776 C77.7004694,19.9703469 78.0401837,20.4148163 78.4728163,20.7681429 C78.9042653,21.1202857 79.3931224,21.3919388 79.9387959,21.5866531 C80.4844694,21.7778163 81.0520408,21.8748776 81.6426939,21.8748776 C82.9376327,21.8748776 84.0053061,21.5866531 84.846898,21.0066531 C85.6890816,20.4272449 86.3134694,19.5909796 86.7218367,18.502 L89.6194694,18.502 C89.3922041,19.4767551 89.0276327,20.3355102 88.5281224,21.0729388 C88.0268367,21.8139184 87.4255306,22.4270612 86.7218367,22.9153265 C86.0181429,23.406551 85.2315918,23.7723061 84.3692857,24.0226531 C83.5057959,24.2718163 82.5973265,24.4002449 81.6426939,24.4002449 C80.1891429,24.4002449 78.9770612,24.1777143 78.0117755,23.7344286 C77.0453061,23.2911429 76.2776939,22.7247551 75.7107143,22.0311224 C75.1419592,21.3380816 74.7436531,20.5775714 74.5175714,19.7448571 C74.2903061,18.9186531 74.1760816,18.1167143 74.1760816,17.3425918 C74.1760816,15.66 74.4205102,14.1212245 74.9099592,12.7227143 C75.3988163,11.3265714 76.0581224,10.1263265 76.8878776,9.1284898 C77.7152653,8.1265102 78.6817347,7.35593878 79.7855102,6.80908163 C80.884551,6.26459184 82.0398163,5.98938776 83.2453878,5.98938776 C85.836449,5.98938776 87.7279592,6.67177551 88.921102,8.03714286 C90.1154286,9.40014286 90.7102245,11.3188776 90.7102245,13.7951224 C90.7102245,14.2502449 90.6782653,14.6828776 90.6096122,15.0900612 C90.541551,15.5002041 90.4847347,15.830449 90.4397551,16.0802041 L77.1778776,16.0802041 C77.1098163,16.580898 77.074898,17.0904694 77.074898,17.6136531 Z M87.6948163,11.6988367 C87.5705306,11.0963469 87.3426735,10.563102 87.0153878,10.0967347 C86.6857347,9.63036735 86.2477755,9.25632653 85.7009184,8.97046939 C85.1558367,8.68757143 84.4852857,8.54671429 83.6886735,8.54671429 C82.849449,8.54671429 82.0936735,8.6775102 81.4243061,8.93673469 C80.7525714,9.19655102 80.1666531,9.55697959 79.6671429,10.0103265 C79.1676327,10.4660408 78.7468367,10.9939592 78.4059388,11.5976327 C78.0638571,12.2001224 77.7910204,12.8404898 77.5862449,13.5228776 L87.8137755,13.5228776 C87.8587551,12.9079592 87.8196939,12.3001429 87.6948163,11.6988367 Z" id="Shape" fill="url(#linearGradient-5)"></path>
                        <polygon id="Shape" fill="url(#linearGradient-6)" points="94.2227755 6.39716327 97.5642857 6.39716327 100.223408 12.8085306 105.471816 6.39716327 108.984959 6.39716327 101.415959 14.9184286 105.916286 24.0220612 102.610286 24.0220612 99.404898 16.794551 93.4036735 24.0220612 89.9266327 24.0220612 98.1425102 14.6805102"></polygon>
                        <path d="M119.585939,6.39716327 L119.037306,8.95508163 L115.526531,8.95508163 L113.344429,19.3193265 C113.321347,19.5246939 113.298265,19.7158571 113.276367,19.8987347 C113.253286,20.0798367 113.240265,20.2727755 113.240265,20.4763673 C113.240265,20.9314898 113.417224,21.2445714 113.769959,21.4138367 C114.122694,21.5860612 114.525735,21.6724694 114.983224,21.6724694 C115.278551,21.6724694 115.561449,21.641102 115.834286,21.5860612 C116.107122,21.5268776 116.378776,21.4546735 116.651612,21.3641224 L116.140857,24.0220612 C115.801143,24.0688163 115.461429,24.1084694 115.118755,24.1410204 C114.77549,24.1771224 114.438143,24.193102 114.095469,24.193102 C113.550388,24.193102 113.039041,24.1528571 112.560837,24.0747347 C112.083224,23.9936531 111.669531,23.8468776 111.315612,23.6308571 C110.963469,23.4172041 110.678796,23.1254286 110.464551,22.7620408 C110.248531,22.3998367 110.137265,21.9334694 110.137265,21.3647143 C110.137265,21.1149592 110.153837,20.876449 110.189347,20.6491837 C110.223082,20.4219184 110.263327,20.1715714 110.308306,19.8993265 L112.627122,8.95567347 L109.660837,8.95567347 L110.20651,6.40071429 L113.172796,6.40071429 L114.265918,1.18367347 L117.163551,1.18367347 L116.069837,6.39953061 L119.584163,6.39953061 L119.584163,6.39657143 L119.585939,6.39657143 L119.585939,6.39716327 Z" id="Shape" fill="url(#linearGradient-7)"></path>
                        <path d="M137.133898,1.84120408 C136.562184,1.84120408 136.111796,2.11936735 135.787469,2.68220408 C135.461367,3.24208163 135.235286,3.86055102 135.113367,4.53228571 L133.980592,10.0712857 C133.816653,10.7885918 133.576959,11.3964082 133.260327,11.897102 C132.941327,12.3948367 132.611673,12.8061633 132.266041,13.1198367 C131.916857,13.4364694 131.575959,13.6803061 131.239204,13.854898 C130.904816,14.0271224 130.639673,14.1354286 130.458571,14.1780408 L130.429571,14.2650408 C130.572796,14.2887143 130.75449,14.3502653 130.97998,14.4508776 C131.204286,14.5503061 131.423857,14.7201633 131.639286,14.9551224 C131.852939,15.188898 132.037592,15.4854082 132.190286,15.8428776 C132.34298,16.2003469 132.419918,16.653102 132.419918,17.2046939 C132.419918,17.3887551 132.400388,17.5710408 132.358959,17.755102 C132.316347,17.9397551 132.276102,18.1433469 132.236449,18.3706122 L131.103673,23.8806122 C131.042122,24.2303878 131.013122,24.5718776 131.013122,24.9210612 C131.013122,25.3903878 131.074673,25.781 131.197184,26.1 C131.320286,26.4166327 131.594306,26.5722857 132.02398,26.5722857 L133.555061,26.5722857 L133.157347,28.4093469 L131.014306,28.4093469 C130.705959,28.4093469 130.395837,28.3477959 130.08098,28.2252857 C129.76198,28.1027755 129.483816,27.9311429 129.238204,27.7062449 C128.990816,27.484898 128.794918,27.1966735 128.640449,26.850449 C128.487755,26.5000816 128.411408,26.1029592 128.411408,25.6567143 C128.411408,25.4714694 128.420878,25.2714286 128.440408,25.0565918 C128.459939,24.8441224 128.491306,24.624551 128.532735,24.3996531 L129.69451,18.8606531 C129.734163,18.6345714 129.766122,18.4167755 129.785653,18.2001633 C129.804,17.9865102 129.814061,17.7900204 129.814061,17.6035918 C129.814061,16.8904286 129.626449,16.3246327 129.249449,15.9056122 C128.872449,15.4871837 128.416143,15.2764898 127.887041,15.2764898 L128.345122,13.1955918 C128.670633,13.1955918 129.002653,13.1091837 129.339408,12.9357755 C129.675571,12.7629592 129.993388,12.5256327 130.288714,12.2172857 C130.583449,11.9113061 130.851551,11.5354898 131.087102,11.085102 C131.321469,10.6341224 131.49902,10.1363878 131.621531,9.58420408 L132.78449,4.01028571 C132.907,3.35867347 133.121837,2.78459184 133.427224,2.28093878 C133.733796,1.78320408 134.080612,1.36359184 134.468857,1.02802041 C134.854735,0.691857143 135.264286,0.434408163 135.693959,0.26277551 C136.122449,0.0899591837 136.529633,0.00295918367 136.914918,0.00295918367 L139.059735,0.00295918367 L138.662612,1.83942857 L137.133898,1.83942857 L137.133898,1.84120408 L137.133898,1.84120408 Z" id="Shape" fill="url(#linearGradient-8)"></path>
                        <polygon id="Shape" fill="url(#linearGradient-9)" points="141.798755 5.07559184 138.165469 23.7788163 136.128367 23.7788163 139.758102 5.07559184"></polygon>
                        <polygon id="Shape" fill="url(#linearGradient-10)" points="145.320184 6.12018367 142.028388 22.7300816 140.571878 22.7300816 143.876694 6.12018367 145.320184 6.12018367"></polygon>
                        <polygon id="Shape" fill="url(#linearGradient-11)" points="148.582388 6.90140816 145.642143 21.9476735 144.652 21.9476735 147.595796 6.90140816"></polygon>
                        <polygon id="Shape" fill="url(#linearGradient-12)" points="151.19949 8.03063265 148.600735 20.822 148.049143 20.822 150.637245 8.03063265"></polygon>
                    </g>
                </g>
            </g>
        </g>
    </g>
</svg>