<?xml version="1.0" encoding="UTF-8"?>
<svg width="104px" height="40px" viewBox="0 0 104 40" version="1.1" xmlns="http://www.w3.org/2000/svg" xmlns:xlink="http://www.w3.org/1999/xlink">
    <!-- Generator: Sketch 45.2 (43514) - http://www.bohemiancoding.com/sketch -->
    <title>Icon</title>
    <desc>Created with Sketch.</desc>
    <defs></defs>
    <g id="New" stroke="none" stroke-width="1" fill="none" fill-rule="evenodd">
        <g id="2" transform="translate(-872.000000, -549.000000)" fill-rule="nonzero" fill="#000000">
            <g id="Features" transform="translate(424.000000, 397.000000)">
                <g id="Babel" transform="translate(438.000000, 152.000000)">
                    <g id="Icon" transform="translate(10.000000, 0.000000)">
                        <path d="M91.8481013,1.23206751 C91.5780591,2.46413502 91.1392405,3.37552743 90.5485232,3.98312236 L90.1265823,3.71308017 C90.5822785,2.54852321 90.8016878,1.87341772 90.7848101,1.70464135 L90.6666667,1.51898734 C90.5147679,1.53586498 90.3122363,1.94092827 90.0590717,2.75105485 L89.8396624,2.76793249 C89.8227848,2.61603376 89.7890295,2.4978903 89.721519,2.37974684 L89.6202532,2.39662447 C87.628692,7.94936709 86.7341772,10.5316456 84.8945148,14.8016878 C84.556962,15.8987342 84.2700422,16.5063291 84.0168776,16.6244726 C84.0337553,16.742616 84.1012658,16.8101266 84.2362869,16.7932489 C84.2869198,17.3333333 84.1518987,17.8565401 83.8649789,18.3797468 C83.0042194,20.8270042 82.4472574,22.1772152 82.1603376,22.4135021 L82.3459916,23.5780591 C82.3628692,23.6962025 82.2953586,23.7805907 82.1603376,23.7805907 L81.9578059,23.7974684 C81.9240506,23.4767932 81.8059072,23.3248945 81.6033755,23.3417722 L81.5021097,23.3586498 C81.2489451,23.7637131 81.0464135,24.2362869 80.9113924,24.7763713 L81.1139241,24.7594937 C81.3839662,24.5907173 81.5021097,24.3881857 81.4852321,24.1350211 L81.8902954,24.1012658 L82.1097046,24.185654 C81.9240506,24.4725738 81.8396624,24.7088608 81.8565401,24.8776371 L81.9578059,25.0632911 L81.7046414,25.6708861 L81.721519,25.7721519 C81.9578059,25.7552743 82.2109705,25.8227848 82.4810127,25.9915612 C82.6666667,25.9746835 82.8691983,25.8902954 83.0886076,25.7552743 C83.3248945,25.7383966 84.1687764,25.721519 85.6540084,25.721519 L86.3966245,25.4683544 C87.3080169,25.4514768 87.443038,25.4852321 88.2362869,25.4177215 L88.556962,25.3839662 L88.7257384,25.2658228 L88.742616,25.3670886 C89.5527426,25.2995781 89.6202532,25.350211 90.2616034,25.4345992 L90.278481,25.535865 L89.8227848,25.5696203 L89.8396624,25.7552743 C89.9746835,25.7383966 90.092827,25.7046414 90.1940928,25.6202532 C90.3122363,25.6033755 90.3797468,25.6708861 90.3966245,25.8059072 C90.2109705,25.8227848 90.0084388,25.8734177 89.7721519,25.9409283 L89.5696203,25.8734177 C89.2489451,25.9578059 89.3164557,25.9746835 89.1139241,25.9915612 L88.7932489,25.9240506 C88.7932489,25.9746835 88.7763713,26.0084388 88.7257384,26.0253165 C88.742616,26.1434599 88.7932489,26.2109705 88.9113924,26.1940928 L89.2995781,26.1603376 L89.1308017,26.092827 C89.1308017,26.1434599 89.164557,26.1772152 89.2320675,26.1772152 L90.9029536,26.0253165 L91.5443038,25.8902954 C91.5443038,25.9409283 91.5780591,25.9746835 91.628692,25.9746835 L91.9324895,25.8565401 L92.5063291,25.8059072 C92.9620253,25.7721519 92.9451477,25.7383966 93.907173,25.5864979 C93.907173,25.535865 93.9240506,25.5021097 93.9746835,25.5021097 L93.9746835,25.5864979 C95.814346,25.2827004 95.6455696,25.2995781 96.0337553,25.164557 L95.9493671,24.9620253 C95.4261603,25.0801688 95.443038,25.0126582 95.1729958,25.0464135 L93.7721519,25.1139241 L93.7552743,25.0126582 L94.5316456,24.9113924 L94.8185654,24.8945148 L94.9704641,24.7763713 L94.9873418,24.8776371 C96.0843882,24.7763713 96.4725738,25.0632911 101.586498,23.9831224 C101.85654,23.9662447 101.839662,23.7299578 102.008439,23.257384 C101.907173,23.257384 101.822785,23.2405063 101.738397,23.1898734 C101.316456,23.3586498 101.097046,23.2742616 100.28692,23.4092827 C100.219409,23.4092827 100.168776,23.3586498 100.135021,23.2236287 L100.135021,23.1392405 L100.911392,23.1729958 C101.046414,23.1561181 101.350211,23.1392405 101.755274,22.9029536 C101.839662,22.9535865 101.687764,23.0042194 101.772152,22.9873418 L101.907173,22.9704641 C101.991561,22.9704641 102.025316,22.9029536 102.025316,22.7679325 L101.940928,22.5822785 C101.417722,22.6329114 101.164557,22.649789 100.742616,22.8860759 L100.725738,22.7848101 L100.084388,22.8523207 C100.067511,22.649789 100.016878,22.5654008 99.9324895,22.5654008 L99.5949367,22.5991561 C99.2067511,22.6329114 99.021097,22.6160338 98.835443,22.7679325 C98.835443,22.7004219 98.8016878,22.6666667 98.7679325,22.6666667 L98.3966245,22.7004219 L98.1772152,22.8185654 C98.1772152,22.7510549 98.1434599,22.7172996 98.1097046,22.7172996 L97.9746835,22.835443 L97.9578059,22.7341772 L97.4514768,22.7004219 L97.3333333,22.7172996 L97.350211,22.9029536 L97.6202532,22.9704641 L97.8565401,22.9535865 C97.9409283,23.0042194 98.0421941,23.021097 98.1434599,23.021097 L98.3628692,22.9198312 L98.3628692,23.0042194 C97.164557,23.3080169 97.164557,23.2405063 96.3375527,23.3924051 C96.2362869,23.3248945 96.1687764,23.3080169 96.1350211,23.3080169 C96.0506329,23.3924051 96.2362869,23.3248945 96.185654,23.3248945 C96.0506329,23.3417722 95.9831224,23.2742616 95.9662447,23.1561181 L96.3881857,23.1054852 C96.4219409,23.1054852 96.4388186,23.1392405 96.6751055,23.1898734 C97.0126582,23.021097 97.0295359,22.9535865 97.2151899,22.9367089 L97.1983122,22.7510549 C96.0168776,22.9873418 96.4894515,22.835443 95.0042194,22.9535865 L94.9367089,22.9535865 L94.9198312,22.7679325 C96.8270042,22.5316456 96.185654,22.6666667 96.8270042,22.4810127 C96.8270042,22.5485232 96.8607595,22.5822785 96.8945148,22.5822785 C96.9620253,22.5147679 97.0632911,22.464135 97.164557,22.464135 L97.2995781,22.4472574 C97.9578059,22.3966245 98.1940928,22.5316456 99.5105485,22.1603376 L99.5105485,22.2447257 L99.7299578,22.1434599 L99.9324895,22.1265823 C99.9156118,21.9240506 100.219409,21.907173 100.303797,21.8902954 L100.28692,21.6877637 C97.9746835,22.1603376 97.3670886,22.0253165 96.7257384,22.2109705 L96.7257384,22.1265823 C96.1181435,22.2447257 96.1012658,22.1772152 95.9493671,22.1940928 C95.8987342,22.1940928 95.8312236,22.2447257 95.7637131,22.3122363 C95.7637131,22.2447257 95.7299578,22.2109705 95.6793249,22.2109705 C95.5780591,22.2109705 95.628692,22.2447257 95.5443038,22.3291139 L95.6793249,22.2109705 L93.6708861,22.5316456 C93.6708861,22.4810127 93.6371308,22.4472574 93.5864979,22.4472574 C92.5738397,22.6666667 92.8438819,22.7004219 91.4767932,22.8185654 C91.4092827,22.8185654 91.3248945,22.8523207 91.2236287,22.9198312 C91.2236287,22.8691983 91.1898734,22.835443 91.1223629,22.835443 L90.278481,22.9029536 L89.721519,23.0379747 C89.721519,22.9873418 89.6877637,22.9535865 89.6202532,22.9535865 C89.2995781,23.0379747 89.0295359,23.0886076 88.8101266,23.1054852 L88.7932489,23.1054852 C88.6582278,23.1223629 88.8607595,23.07173 88.7594937,23.021097 L88.5907173,23.1223629 C88.3375527,23.1392405 88.4725738,23.1054852 87.628692,23.1223629 C86.1434599,23.3080169 86.3122363,23.3248945 86.1434599,23.3417722 L85.5864979,23.3080169 C85.5864979,23.3586498 85.5696203,23.3924051 85.5021097,23.4092827 C84.8776371,23.3248945 84.556962,23.2236287 84.5400844,23.1054852 C84.6244726,22.5147679 84.7594937,22.2109705 84.978903,22.1772152 L85.0801688,22.1603376 L84.978903,22.3628692 L85.0801688,22.3459916 C85.2827004,22.2447257 85.3670886,22.1434599 85.3670886,22.0421941 L85.350211,21.8396624 L85.1476793,21.8565401 L85.1308017,21.6708861 C85.1139241,21.5189873 85.1308017,21.4008439 85.1814346,21.2827004 L85.6371308,20.556962 L85.6540084,20.742616 L85.8734177,20.7257384 L85.8565401,20.5400844 L85.7383966,20.3544304 C85.8902954,20.2194093 86.0253165,20.1350211 86.1265823,20.1350211 L86.1097046,20.0337553 L85.8227848,20.0506329 L85.8059072,19.7637131 C86.3797468,18.5485232 86.6666667,17.8396624 86.649789,17.6540084 L86.8523207,17.7383966 C86.9873418,17.721519 87.0548523,17.6540084 87.0379747,17.5189873 L86.835443,17.535865 L86.835443,17.4514768 C86.8185654,17.2995781 86.8523207,17.164557 86.9029536,17.0464135 C87.2236287,16.7257384 87.3586498,16.3881857 87.3248945,16.0337553 C87.3924051,16.0337553 87.4261603,16.0675105 87.4261603,16.1350211 C87.6962025,15.9831224 87.8987342,15.5780591 88.0506329,14.9029536 C88.5232068,14.0421941 89.1983122,12.3206751 90.0759494,9.75527426 C91.7637131,5.21518987 91.6962025,4.7257384 91.9324895,3.66244726 L91.7299578,3.67932489 C91.7468354,3.81434599 91.7130802,3.94936709 91.6455696,4.06751055 C91.5105485,4.01687764 91.3924051,3.98312236 91.3248945,3.98312236 L91.3248945,3.89873418 C91.2911392,3.51054852 91.4599156,3.03797468 91.8312236,2.48101266 L91.9156118,2.48101266 L92.0843882,3.13924051 L92.2869198,3.12236287 C92.2869198,3.07172996 92.3375527,2.8185654 92.4388186,2.32911392 C92.4219409,2.2278481 92.3544304,2.17721519 92.2025316,2.16033755 L92.0168776,2.27848101 C92,2.14345992 92.0168776,1.78902954 92.0337553,1.19831224 L91.8481013,1.23206751 L91.8481013,1.23206751 Z M89.4177215,4.15189873 L89.5189873,4.1350211 C89.3670886,4.40506329 89.2489451,4.55696203 89.1308017,4.57383966 L89.1139241,4.28691983 C89.1983122,4.27004219 89.2995781,4.23628692 89.4177215,4.15189873 Z M88.5738397,6.17721519 C88.7763713,5.35021097 88.978903,4.87763713 89.164557,4.75949367 L89.1814346,4.86075949 C89.0801688,5.6371308 88.9113924,6.02531646 88.6751055,6.05907173 L88.7088608,6.54852321 C88.5232068,6.80168776 88.4388186,7.00421941 88.4556962,7.15611814 L88.3544304,7.17299578 L88.3037975,6.4978903 C88.4050633,6.48101266 88.5063291,6.37974684 88.5738397,6.17721519 L88.5738397,6.17721519 Z M88.2531646,7.2742616 C88.2700422,7.39240506 88.185654,7.66244726 88.0337553,8.06751055 L87.9324895,8.08438819 L87.9156118,7.79746835 C88.0337553,7.45991561 88.1518987,7.29113924 88.2531646,7.2742616 Z M82.7004219,19.5443038 L82.8016878,19.7299578 C82.9535865,19.7130802 83.021097,19.6455696 83.0042194,19.5274262 L82.9873418,19.4261603 L82.8860759,19.443038 L82.7004219,19.5443038 L82.7004219,19.5443038 Z M85.3670886,21.7552743 L85.3670886,21.8396624 C85.5189873,21.8227848 85.6708861,21.5527426 85.8059072,21.0295359 L85.6033755,20.9620253 C85.4345992,21.4177215 85.3670886,21.6708861 85.3670886,21.7552743 L85.3670886,21.7552743 Z M102.447257,22.3459916 L102.447257,22.4303797 L102.278481,22.6329114 L102.599156,22.5147679 L102.632911,22.5147679 L102.616034,22.3291139 L102.548523,22.3291139 L102.43038,22.4303797 C102.43038,22.3797468 102.78481,22.278481 102.514768,22.2278481 C102.464135,22.3122363 102.599156,22.3291139 102.447257,22.3459916 Z M103.105485,22.9679325 L103.561181,22.9315689 C103.544304,22.8042961 103.257384,22.7679325 103.156118,22.7679325 L103.088608,22.7679325 L103.105485,22.9679325 L103.105485,22.9679325 Z M95.0379747,23.1223629 L95.1729958,23.2911392 C95.1729958,23.2405063 95.1898734,23.2067511 95.2405063,23.2067511 L95.3417722,23.3924051 L94.9198312,23.3417722 C94.8860759,23.2067511 94.9367089,23.1392405 95.0379747,23.1223629 Z M93.6540084,23.2742616 C93.8059072,23.257384 93.907173,23.3586498 93.907173,23.4936709 L93.4345992,23.4936709 L93.4345992,23.4092827 C93.4852321,23.3924051 93.5696203,23.3586498 93.6540084,23.2742616 Z M94.7341772,23.2236287 L94.7510549,23.3436287 L94.3628692,23.3836287 L94.3459916,23.2636287 L94.7341772,23.2236287 Z M90.8185654,23.628692 C90.8185654,23.6793249 90.8523207,23.7130802 90.9198312,23.7130802 C91.5443038,23.5949367 91.4767932,23.5780591 91.7805907,23.5443038 C91.8818565,23.5274262 91.9324895,23.5949367 91.9493671,23.7130802 L90.2109705,23.8649789 L90.3797468,23.9493671 L90.3628692,23.8481013 L89.7046414,23.8987342 L89.6877637,23.7974684 L90.278481,23.7468354 L90.8185654,23.628692 L90.8185654,23.628692 Z M92.6075949,23.4767932 L92.6075949,23.5677023 C92.556962,23.5677023 92.7763713,23.5858842 92.6751055,23.6767932 C92.3037975,23.6404296 92.2869198,23.604066 92.0168776,23.6222478 L92.0168776,23.5313387 L92.6075949,23.4767932 Z M93.0464135,23.4261603 L93.0464135,23.5261603 L92.7257384,23.5661603 L92.7257384,23.4661603 L93.0464135,23.4261603 Z M82.2447257,25.1476793 L82.2616034,25.4345992 C82.1603376,25.4514768 82.0759494,25.3839662 82.0421941,25.2489451 L82.0421941,25.164557 L82.2447257,25.1476793 L82.2447257,25.1476793 Z M96.6919831,24.8945148 L96.7088608,25.0801688 L97.0464135,25.0464135 L96.9113924,24.9620253 L96.92827,25.0632911 L97.2658228,24.92827 C99.5780591,24.6751055 99.8481013,24.7763713 99.814346,24.5063291 L99.814346,24.4219409 C97.4852321,24.9451477 97.1814346,24.8438819 96.6919831,24.8945148 L96.6919831,24.8945148 Z M100.303797,24.5738397 L100.64135,24.6413502 L100.624473,24.4556962 L100.28692,24.3881857 L100.303797,24.5738397 Z M90.3122363,25.2320675 C90.4135021,25.2827004 90.1940928,25.3333333 90.3291139,25.3164557 L91.5105485,25.2151899 L91.5274262,25.3164557 C91.1898734,25.350211 90.9704641,25.4008439 90.9029536,25.4683544 C90.9029536,25.4008439 90.8691983,25.3670886 90.8016878,25.3670886 L90.2953586,25.4177215 L90.278481,25.3164557 C90.4135021,25.2995781 90.2109705,25.2995781 90.3122363,25.2320675 L90.3122363,25.2320675 Z M95.7805907,25.0970464 L95.8818565,25.2827004 C96.2700422,25.1983122 96.0506329,25.2151899 96.1518987,25.1308017 C96.1518987,25.1983122 96.185654,25.2320675 96.2194093,25.2320675 L96.4894515,25.2151899 L96.4725738,25.0126582 L95.7637131,24.9957806 L95.7805907,25.0970464 L95.7805907,25.0970464 Z M89.1126582,25.8371308 L89.0326582,25.8371308 L89.0126582,25.6371308 L89.0926582,25.6371308 L89.1126582,25.8371308 Z M83.814346,26.464135 L83.8312236,26.5654008 L86.9367089,26.3122363 L86.9198312,26.1265823 L84.4388186,26.3291139 L83.9156118,26.2616034 L83.814346,26.464135 Z M87.277384,26.292827 L87.317384,26.292827 L87.297384,26.092827 L87.257384,26.092827 L87.277384,26.292827 Z M40.0168776,9.97468354 C37.8227848,12.5907173 36.6919831,14.0253165 36.6075949,14.3122363 C35.7130802,15.2405063 35.2742616,15.7974684 35.3248945,15.9831224 C35.0886076,16.1350211 34.9873418,16.2869198 35.021097,16.4556962 C34.9535865,16.4725738 34.9029536,16.4388186 34.8860759,16.371308 C34.4978903,16.9957806 33.9409283,17.3839662 33.1814346,17.5696203 L32.3881857,17.7552743 C32.2869198,17.7721519 32.2362869,17.8565401 32.2362869,17.9915612 L32.2531646,18.092827 L32.556962,18.0253165 L32.5738397,18.1097046 L31.8987342,18.3628692 L30.7004219,18.6329114 L30.0759494,18.6666667 C29.9915612,18.7510549 30.5654008,18.649789 30.3459916,18.7172996 L29.5696203,18.9029536 C29.0970464,19.021097 28.8270042,18.9704641 28.7932489,18.7848101 L28.7088608,18.8016878 C28.7594937,18.9873418 28.7088608,19.1054852 28.5738397,19.1392405 L28.7257384,19.1054852 L28.6582278,18.8185654 L27.2405063,19.1561181 L27.3924051,19.2236287 C27.3755274,19.1561181 27.3080169,19.1392405 27.1729958,19.1729958 L26.9873418,19.3248945 L26.7679325,19.2742616 C26.5654008,19.3924051 26.4303797,19.4599156 26.3966245,19.4599156 L26.1772152,19.4092827 C25.5864979,19.7468354 26.0253165,19.7468354 25.9915612,19.7468354 L26.0421941,19.9324895 L26.3797468,19.8481013 L26.9029536,19.814346 L26.8523207,20.0337553 C24.92827,20.5400844 26.3291139,20.2531646 25.8059072,20.371308 L25.7046414,20.3881857 L25.7552743,20.5738397 L26.0590717,20.5063291 L26.0759494,20.6075949 C25.6877637,20.6919831 25.4683544,20.7763713 25.4008439,20.8607595 L25.3839662,20.7594937 C24.8776371,20.8776371 24.371308,21.2658228 23.8649789,21.907173 C23.9493671,22.278481 22.8523207,22.7341772 28.0168776,21.535865 C28.371308,21.5189873 28.5738397,21.5189873 28.6244726,21.5021097 C28.6075949,21.4345992 28.6413502,21.4008439 28.7088608,21.3839662 C29.2827004,21.3164557 29.0126582,21.4177215 29.3670886,21.3333333 L30.4810127,21.0801688 L30.2447257,21.2151899 C30.2278481,21.164557 30.2616034,21.1308017 30.3122363,21.1139241 C30.4472574,21.1476793 30.5822785,21.1308017 30.7341772,21.0970464 L30.8016878,21.3839662 L26.3966245,28.371308 L25.4177215,29.5864979 L24.9451477,31.1898734 L25.0295359,31.1729958 L25.5021097,30.9704641 L25.350211,31.5949367 L25.4008439,31.7805907 L25.535865,31.9493671 C25.4683544,31.9662447 25.4514768,32 25.4683544,32.0675105 L25.4852321,32.1687764 L25.6877637,32.1181435 C25.9746835,31.8649789 26.092827,31.628692 26.0590717,31.4261603 C26.3797468,31.4767932 26.5822785,31.4936709 26.6835443,31.4767932 L26.7004219,31.5780591 C26.5147679,31.628692 26.4135021,31.7805907 26.3966245,32.0337553 L26.4135021,32.1350211 L26.5147679,32.1181435 C28.1181435,30.3797468 32.0168776,24.4219409 35.1561181,20.371308 C35.0548523,19.9324895 36.6919831,19.3248945 40.0675105,18.5485232 L40.1687764,18.5316456 C40.2869198,19.0548523 40.0337553,20.3375527 39.3924051,22.3797468 C38.9704641,23.6118143 38.7848101,24.2869198 38.8016878,24.3881857 C38.2616034,26.0253165 38.0084388,26.9029536 38.0421941,27.0379747 L36.8438819,30.9535865 C36.0675105,32.9620253 35.4767932,35.07173 35.07173,37.2995781 C35.1392405,37.2827004 35.257384,37.2995781 35.3924051,37.3333333 L35.5611814,37.1814346 C35.5780591,37.2489451 35.6118143,37.2658228 35.6962025,37.2658228 L35.628692,36.978903 L36.1518987,36.9620253 C36.3037975,36.92827 36.4388186,36.7257384 36.5400844,36.371308 C36.5232068,35.8481013 36.6244726,35.5611814 36.8607595,35.4936709 C37.1814346,34.2447257 37.3839662,33.6033755 37.4514768,33.5864979 C37.7552743,32.3375527 37.9746835,31.628692 38.1265823,31.443038 C38.5822785,29.8227848 38.9029536,28.978903 39.1223629,28.92827 L39.1729958,29.1308017 L38.8523207,29.9915612 C38.278481,32.5400844 37.6877637,34.5654008 37.0970464,36.0506329 L37.2658228,36.7932489 L37.3670886,36.7763713 C38.8016878,33.7046414 40.8438819,27.628692 43.5274262,18.5485232 C43.6118143,17.7552743 43.9831224,17.1308017 44.6751055,16.6919831 L44.5232068,16.5400844 L44.5063291,16.4556962 C44.8101266,16.3881857 45.0295359,16.2700422 45.1476793,16.1012658 C45.1308017,16.0337553 44.8607595,15.9324895 44.3375527,15.7974684 L45.9240506,9.01265823 C46.3966245,6.98734177 46.7172996,5.21518987 46.8860759,3.66244726 L46.8691983,3.56118143 C46.5485232,3.35864979 46.2278481,3.07172996 45.9409283,2.70042194 L45.9409283,2.29535865 L45.9240506,2.21097046 L45.8396624,2.2278481 C44.8607595,3.71308017 42.9029536,6.29535865 40.0168776,9.97468354 L40.0168776,9.97468354 Z M42.2616034,11.5105485 C42.3459916,11.8649789 42.2109705,12.5232068 41.8734177,13.4852321 C41.7721519,14.7004219 41.3333333,15.3924051 40.5738397,15.5780591 L40.556962,15.4767932 L39.8818565,15.7299578 L39.5780591,15.7974684 C39.4261603,15.8312236 39.2911392,15.8312236 39.1561181,15.7805907 L39.0886076,15.5105485 C39.07173,15.4092827 40.0337553,14.0590717 42.0253165,11.4767932 L42.2616034,11.5105485 L42.2616034,11.5105485 Z M40.7088608,15.7299578 L40.92827,15.6793249 L40.978903,15.8649789 C39.9156118,16.185654 39.3248945,16.3544304 39.2067511,16.3881857 C39.1392405,16.4050633 39.0379747,16.4556962 38.9198312,16.556962 C38.9029536,16.4894515 38.7679325,16.4894515 38.4978903,16.5400844 C38.4472574,16.3544304 39.1898734,16.0843882 40.7088608,15.7299578 L40.7088608,15.7299578 Z M30.2278481,18.5654008 L30.464135,18.5147679 L30.4135021,18.3122363 L30.1772152,18.3628692 L30.2278481,18.5654008 Z M33.3164557,17.7552743 L33.3670886,17.9409283 L32.8607595,17.9746835 L32.8438819,17.8734177 L33.3164557,17.7552743 L33.3164557,17.7552743 Z M27.4092827,19.6962025 L27.4261603,19.8162025 L27.1054852,19.8962025 L27.0886076,19.7762025 L27.4092827,19.6962025 Z M26.8185654,20.9295742 L26.835443,21.0204833 L26.4472574,21.1113924 L26.3966245,20.9113924 L26.8185654,20.9295742 L26.8185654,20.9295742 Z M27.7468354,20.7257384 L27.7637131,20.8101266 L27.0548523,20.978903 L27.0379747,20.8945148 L27.7468354,20.7257384 Z M28.978903,20.5232068 L28.9957806,20.6244726 L27.1392405,21.0464135 L27.0886076,20.8607595 C28.1687764,20.6751055 28.0506329,20.742616 28.978903,20.5232068 L28.978903,20.5232068 Z M38.278481,18.3628692 L38.4303797,18.5316456 C38.2109705,18.5822785 38.0421941,18.649789 37.9578059,18.7341772 L37.7383966,18.7004219 C37.4008439,18.835443 37.0970464,18.9367089 36.8607595,18.9873418 L36.6582278,19.0379747 C36.5400844,19.07173 36.4556962,19.021097 36.4050633,18.9029536 L37.8059072,18.5822785 L38.278481,18.3628692 L38.278481,18.3628692 Z M39.2742616,18.1434599 L40.2700422,17.907173 L40.2869198,18.0084388 C39.7468354,18.1265823 39.3248945,18.2616034 39.021097,18.4135021 L39.0042194,18.3122363 C39.0886076,18.2953586 39.1729958,18.2278481 39.2742616,18.1434599 Z M28.8101266,20.978903 L29.2827004,20.8776371 L29.3333333,21.0632911 C29.1308017,21.1139241 29.2827004,21.1139241 29.0295359,21.2320675 C28.5400844,21.2827004 28.6413502,21.2151899 27.8649789,21.4008439 L27.8481013,21.2995781 L28.8101266,20.978903 Z M30.092827,20.7594937 C30.2278481,20.7257384 30.3122363,20.7763713 30.3291139,20.9113924 L30.0421941,20.978903 C29.9240506,21.0126582 29.8396624,20.9620253 29.7890295,20.8270042 L30.092827,20.7594937 L30.092827,20.7594937 Z M24.8104383,31.4261603 L24.8289782,31.5274262 C24.9772981,31.4936709 25.032918,31.4261603 24.995838,31.2911392 L24.9772981,31.1898734 C24.8475182,31.2236287 24.7918983,31.2911392 24.8104383,31.4261603 Z M25.2151899,33.1139241 C25.2489451,33.2320675 25.3164557,33.2827004 25.4514768,33.2489451 C25.5864979,33.2151899 25.6371308,33.1476793 25.6033755,33.0126582 L25.5864979,32.9113924 L25.3839662,32.9620253 L25.2151899,33.1139241 L25.2151899,33.1139241 Z M35.9831224,36.0168776 C36.1181435,35.9831224 36.185654,36.0337553 36.2194093,36.1518987 L36.2362869,36.2531646 L35.8481013,36.3375527 C35.8818565,36.2025316 35.8818565,36.1012658 35.8649789,36.0337553 L35.9831224,36.0168776 L35.9831224,36.0168776 Z" id="Shape"></path>
                        <path d="M51.6118143,4.79324895 C50.7341772,5.41772152 49.7383966,6.05907173 48.6244726,6.6835443 L48.6413502,6.86919831 C48.7088608,6.86919831 48.8101266,6.8185654 48.9451477,6.73417722 C49.0801688,6.71729958 49.1476793,6.78481013 49.164557,6.90295359 L49.350211,6.80168776 L49.4345992,6.80168776 L49.4345992,6.88607595 C49.4514768,6.98734177 48.742616,7.52742616 47.3586498,8.50632911 L47.4599156,8.70886076 L47.3755274,8.70886076 L47.1561181,8.62447257 C47.1561181,8.69198312 47.07173,8.74261603 46.8691983,8.75949367 L46.8691983,8.84388186 L47.0886076,9.11392405 C47.021097,9.11392405 46.9029536,9.09704641 46.7679325,9.02953586 C46.3122363,9.06329114 45.8734177,9.40084388 45.4345992,10.0084388 L45.535865,10.1940928 C45.9240506,9.83966245 46.1434599,9.65400844 46.2109705,9.65400844 L46.2278481,9.94092827 C46.1603376,9.94092827 46.0590717,9.99156118 45.9240506,10.0759494 L46.1772152,10.4303797 C46.6329114,9.92405063 47.1392405,9.5021097 47.6793249,9.14767932 C47.9493671,9.23206751 48.1012658,9.3164557 48.1012658,9.40084388 L48.3037975,9.38396624 C49.8227848,8.27004219 51.3080169,7.47679325 52.7763713,6.98734177 L52.7932489,7.17299578 C52.5232068,7.57805907 52.3375527,7.78059072 52.2362869,7.79746835 C52.2531646,7.93248945 52.2869198,8.05063291 52.3544304,8.16877637 C52.371308,8.42194093 51.7130802,10.1097046 50.3628692,13.2320675 C47.2742616,20.4725738 44.6919831,25.8396624 42.5991561,29.3164557 C42.5991561,29.3839662 42.649789,29.4852321 42.7341772,29.6033755 C43.257384,29.4852321 43.5780591,29.350211 43.7130802,29.2320675 L43.7974684,29.2320675 L43.814346,29.4177215 L44.0337553,29.4008439 L44.2194093,29.2995781 C44.2194093,29.350211 44.2869198,29.3839662 44.4219409,29.3670886 L44.4388186,29.5696203 C44.4556962,29.7552743 44.3375527,30.0421941 44.1181435,30.4472574 C43.8987342,30.6835443 43.6624473,31.1898734 43.4261603,31.9493671 L43.443038,32.0506329 L43.6455696,32.0337553 C44.4894515,31.0886076 45.1139241,30.1772152 45.5527426,29.2658228 C48,28.5400844 49.8565401,27.8481013 51.1561181,27.1561181 C52.4725738,27.0379747 53.4514768,26.7004219 54.1265823,26.1434599 L54.1097046,26.0421941 L53.6033755,26.1940928 L53.5021097,26.2109705 L53.4852321,26.1097046 C54.4472574,25.9746835 55.1054852,25.7552743 55.4599156,25.4683544 C57.3164557,24.0337553 58.7172996,23.021097 59.6793249,22.4303797 C62.6160338,20.2700422 64,18.2109705 63.8312236,16.2194093 C63.814346,16.0168776 63.1729958,15.2067511 61.8902954,13.7890295 C61.8734177,13.5189873 62.3122363,13.1308017 63.2067511,12.6244726 L65.7721519,10.3966245 C66.3459916,9.67088608 66.6835443,8.48945148 66.7848101,6.85232068 L66.7510549,6.48101266 C66.649789,5.35021097 65.8227848,4.43881857 64.2700422,3.72995781 C63.3417722,3.10548523 61.6877637,2.76793249 59.3080169,2.70042194 C57.3839662,2.83544304 54.8016878,3.5443038 51.6118143,4.79324895 L51.6118143,4.79324895 Z M65.350211,4.92827004 L65.2489451,5.13080169 L62.4135021,3.93248945 C64.3206751,4.01687764 65.2995781,4.33755274 65.350211,4.92827004 L65.350211,4.92827004 Z M53.8396624,12.8270042 C54.0421941,11.7637131 54.2616034,11.1729958 54.4978903,11.0379747 L56.6413502,6.24472574 C56.6244726,5.95780591 57.0632911,5.72151899 57.9915612,5.55274262 L58.2953586,5.51898734 L58.3122363,5.80590717 C59.2236287,5.65400844 59.7805907,5.56962025 60.0168776,5.55274262 C61.7046414,5.40084388 62.5822785,5.75527426 62.649789,6.56540084 L62.8523207,6.54852321 L62.8185654,6.092827 L63.021097,6.07594937 C63.5105485,6.34599156 63.7637131,6.66666667 63.7974684,7.05485232 C63.814346,7.32489451 63.6793249,7.66244726 63.3924051,8.06751055 C63.257384,8.08438819 63.1898734,7.98312236 63.1729958,7.79746835 L62.9704641,7.81434599 L62.9029536,8.38818565 C62.0421941,9.68776371 61.4345992,10.3459916 61.0464135,10.3797468 C60.7088608,10.8523207 60.4894515,11.0886076 60.3881857,11.0886076 C60.1181435,11.4092827 59.3924051,11.9662447 58.1940928,12.7257384 C57.7890295,12.7594937 56.3206751,13.3333333 53.7721519,14.4472574 C53.6540084,14.3966245 53.5021097,14.3797468 53.3670886,14.3966245 L53.350211,14.2109705 C53.3164557,13.8565401 53.4852321,13.4008439 53.8396624,12.8270042 L53.8396624,12.8270042 Z M65.6202532,6.91983122 L65.6371308,7.12236287 C65.535865,7.12236287 65.350211,6.8185654 65.0464135,6.21097046 L65.0295359,6.02531646 C65.2151899,6.00843882 65.4177215,6.31223629 65.6202532,6.91983122 Z M46.9198312,9.21518987 L46.9367089,9.3164557 C46.8691983,9.3164557 46.7679325,9.36708861 46.6329114,9.43459916 L46.5485232,9.43459916 L46.5316456,9.24894515 L46.9198312,9.21518987 Z M53.1139241,9.06329114 L53.1308017,9.35021097 C53.0295359,9.35021097 52.9113924,9.5021097 52.7594937,9.75527426 L52.742616,9.56962025 C52.9113924,9.35021097 52.9957806,9.1814346 52.9957806,9.06329114 L53.1139241,9.06329114 L53.1139241,9.06329114 Z M52.1706329,11.0548523 L52.2106329,11.4261603 L52.0906329,11.443038 L52.0506329,11.07173 L52.1706329,11.0548523 Z M51.9156118,11.7468354 C51.8987342,12.0675105 51.814346,12.2362869 51.6624473,12.2531646 L51.5611814,12.2700422 C51.6793249,12.0506329 51.7299578,11.8818565 51.7130802,11.7637131 L51.9156118,11.7468354 L51.9156118,11.7468354 Z M51.4767932,12.742616 L51.4936709,12.8438819 L51.3248945,13.1476793 L51.1223629,13.164557 L51.1054852,13.0632911 C51.3080169,13.0464135 51.4092827,12.9451477 51.3924051,12.742616 L51.4767932,12.742616 L51.4767932,12.742616 Z M51.0691983,13.6371308 L50.996471,14.1265823 L50.9055619,14.1265823 L50.8691983,13.6371308 L51.0691983,13.6371308 L51.0691983,13.6371308 Z M61.4514768,13.9915612 L61.8734177,14.2447257 C61.8902954,14.3628692 61.8227848,14.4472574 61.6877637,14.4472574 C61.5021097,14.3291139 61.3670886,14.278481 61.2658228,14.2953586 L61.2658228,14.0084388 L61.4514768,13.9915612 L61.4514768,13.9915612 Z M53.3164557,15.07173 L53.3333333,15.257384 L52.92827,15.2911392 L52.9113924,15.1054852 L53.3164557,15.07173 Z M59.8818565,15.7637131 C60.1687764,15.8987342 60.3037975,16.0168776 60.3206751,16.1181435 L60.3206751,16.2025316 C60.0506329,16.2194093 59.7974684,16.0843882 59.5611814,15.7805907 L59.8818565,15.7637131 Z M51.4261603,17.8396624 C52.5738397,17.7383966 54.3797468,17.1983122 56.8607595,16.2194093 L57.4852321,16.1687764 C58.7341772,16.0675105 59.6624473,16.3037975 60.2869198,16.8945148 L60.3206751,17.2658228 C59.8649789,18.5822785 59.3586498,19.3586498 58.8016878,19.5949367 L56.2531646,21.6540084 C54.3459916,22.9029536 53.3164557,23.5274262 53.1476793,23.5443038 C50.1097046,25.2151899 48.2194093,26.0759494 47.4767932,26.1434599 L47.3755274,26.1603376 C47.443038,25.8059072 48.7932489,23.0379747 51.4261603,17.8396624 L51.4261603,17.8396624 Z M54.1772152,16.742616 L54.1940928,16.862616 L53.7890295,16.902616 L53.7721519,16.782616 L54.1772152,16.742616 Z M63.3755274,16.3206751 L63.443038,17.0970464 C63.3417722,17.2827004 63.257384,17.3839662 63.1561181,17.4008439 L63.0379747,16.0843882 C63.257384,16.1518987 63.3755274,16.2362869 63.3755274,16.3206751 Z M47.7974684,22.9367089 C47.6624473,23.5780591 47.5274262,23.9156118 47.3924051,23.9156118 L47.3924051,23.8312236 C47.3417722,23.5274262 47.4767932,23.2236287 47.7974684,22.9367089 Z M50.3459916,26.5485232 C51.0886076,26.4135021 53.1308017,25.350211 56.4725738,23.3417722 L56.4894515,23.5274262 C56.4894515,23.6118143 56.2194093,23.8649789 55.628692,24.2700422 C53.9409283,25.1139241 52.92827,25.6708861 52.6244726,25.9578059 C50.7848101,26.5991561 49.8734177,27.0042194 49.8902954,27.1561181 C48.2531646,27.7974684 47.1898734,28.2700422 46.6666667,28.5738397 C46.5485232,28.5907173 46.3628692,28.5400844 46.1434599,28.4219409 C46.1097046,28.0843882 46.2616034,27.8312236 46.5822785,27.628692 C46.8691983,27.6118143 47.1392405,27.6455696 47.3924051,27.7468354 C47.6962025,27.5949367 48.2194093,27.4261603 48.978903,27.2236287 L48.9620253,27.0379747 L48.3375527,27.0886076 C48.4050633,26.9704641 48.9957806,26.7004219 50.092827,26.2616034 L50.3966245,26.2278481 L50.3966245,26.3122363 C49.8734177,26.3628692 49.5864979,26.5147679 49.5189873,26.7848101 C49.535865,26.9029536 49.6033755,26.9704641 49.7383966,26.9535865 C50.1603376,26.7510549 50.3459916,26.5991561 50.3459916,26.5485232 L50.3459916,26.5485232 Z M47.1898734,24.2362869 L47.1898734,24.3206751 C47.2067511,24.4556962 47.1392405,24.5400844 47.0042194,24.5400844 L46.9873418,24.4388186 C46.9873418,24.3544304 47.0548523,24.2700422 47.1898734,24.2362869 L47.1898734,24.2362869 Z M51.9831224,25.5527426 C51.7468354,25.5696203 51.2911392,25.7721519 50.6160338,26.1434599 L50.5147679,26.1603376 L50.4978903,25.9746835 C50.9873418,25.9240506 51.4261603,25.7383966 51.7637131,25.4008439 C51.8987342,25.3839662 51.9662447,25.4345992 51.9831224,25.5527426 L51.9831224,25.5527426 Z M47.021097,26.9367089 L47.3248945,26.9029536 L47.3417722,27.0042194 C47.2742616,27.0042194 47.1729958,27.0548523 47.0379747,27.1223629 L46.835443,27.1392405 C46.8185654,27.0379747 46.8860759,26.9704641 47.021097,26.9367089 L47.021097,26.9367089 Z M44.978903,28.0675105 L45.1814346,28.1518987 C45.1139241,28.742616 44.92827,29.0464135 44.6582278,29.0632911 C44.4219409,28.9620253 44.2194093,28.9113924 44.0337553,28.92827 L44.0168776,28.6413502 C44,28.5400844 44.0675105,28.4725738 44.2025316,28.4388186 C44.3375527,28.4219409 44.4050633,28.5232068 44.4219409,28.7088608 C44.7594937,28.2869198 44.9451477,28.0675105 44.978903,28.0675105 Z M11.8818565,3.94936709 C10.7341772,4.79324895 9.41772152,5.62025316 7.94936709,6.43037975 L7.96624473,6.6835443 C8.06751055,6.6835443 8.18565401,6.61603376 8.35443038,6.53164557 C8.52320675,6.51476793 8.62447257,6.58227848 8.62447257,6.75105485 L8.89451477,6.59915612 L9.02953586,6.58227848 L9.0464135,6.70042194 C9.06329114,6.8185654 8.1350211,7.5443038 6.29535865,8.84388186 L6.44725738,9.08016878 L6.31223629,9.09704641 L6.02531646,8.99578059 C6.02531646,9.08016878 5.907173,9.13080169 5.6371308,9.14767932 L5.65400844,9.28270042 L5.95780591,9.62025316 C5.85654008,9.62025316 5.72151899,9.60337553 5.55274262,9.53586498 C4.96202532,9.58649789 4.37130802,10.0253165 3.79746835,10.835443 L3.94936709,11.07173 C4.4556962,10.6160338 4.74261603,10.3797468 4.82700422,10.3797468 L4.86075949,10.7510549 C4.77637131,10.7510549 4.64135021,10.8185654 4.47257384,10.9029536 L4.79324895,11.3755274 C5.40084388,10.7172996 6.05907173,10.1603376 6.80168776,9.70464135 C7.17299578,9.80590717 7.35864979,9.907173 7.35864979,10.0421941 L7.62869198,10.0253165 C9.60337553,8.55696203 11.5611814,7.51054852 13.5021097,6.85232068 L13.5189873,7.10548523 C13.164557,7.64556962 12.9113924,7.91561181 12.7763713,7.93248945 C12.7932489,8.11814346 12.8607595,8.27004219 12.9620253,8.42194093 C12.9957806,8.75949367 12.1181435,10.9704641 10.3291139,15.0886076 C6.24472574,24.6413502 2.83544304,31.6962025 0.0843881857,36.2869198 C0.0843881857,36.371308 0.151898734,36.5063291 0.23628692,36.6582278 C0.911392405,36.4894515 1.35021097,36.3375527 1.53586498,36.1687764 L1.68776371,36.1518987 L1.70464135,36.4050633 L1.95780591,36.3881857 L2.2278481,36.2362869 C2.2278481,36.3206751 2.32911392,36.3544304 2.4978903,36.3375527 L2.51476793,36.5907173 C2.53164557,36.8438819 2.39662447,37.2320675 2.07594937,37.7552743 C1.78902954,38.0759494 1.5021097,38.7341772 1.1814346,39.7299578 L1.19831224,39.8481013 L1.45147679,39.8312236 C2.54852321,38.5991561 3.39240506,37.3839662 3.96624473,36.2025316 C7.18987342,35.257384 9.6371308,34.3291139 11.3417722,33.4177215 C13.0464135,33.2658228 14.3628692,32.8270042 15.2405063,32.0843882 L15.2236287,31.9493671 L14.5822785,32.1350211 L14.4303797,32.1518987 L14.4135021,32.0168776 C15.6624473,31.8312236 16.5400844,31.5443038 17.0126582,31.1729958 C19.4599156,29.2827004 21.2995781,27.9493671 22.5485232,27.1561181 C26.4135021,24.3206751 28.2362869,21.5864979 28.0168776,18.9873418 C28,18.7172996 27.1392405,17.6540084 25.4683544,15.7974684 C25.4345992,15.443038 26.0253165,14.9367089 27.2067511,14.2616034 L30.5654008,11.3080169 C31.3080169,10.3459916 31.7637131,8.79324895 31.9156118,6.64978903 L31.8649789,6.14345992 C31.7299578,4.64135021 30.649789,3.42616034 28.5907173,2.4978903 C27.3755274,1.67088608 25.1983122,1.23206751 22.0590717,1.1814346 C19.4767932,1.41772152 16.0675105,2.32911392 11.8818565,3.94936709 L11.8818565,3.94936709 Z M29.9746835,4.16877637 L29.8734177,4.42194093 L26.1265823,2.85232068 C28.6244726,2.9535865 29.907173,3.39240506 29.9746835,4.16877637 L29.9746835,4.16877637 Z M14.8185654,14.5654008 C15.07173,13.1814346 15.3586498,12.3881857 15.6793249,12.2025316 L18.4810127,5.907173 C18.4472574,5.51898734 19.0379747,5.21518987 20.2700422,5.01265823 L20.6751055,4.97890295 L20.7088608,5.33333333 C21.9240506,5.14767932 22.6666667,5.0464135 22.9535865,5.01265823 C25.1814346,4.82700422 26.3291139,5.26582278 26.4303797,6.3628692 L26.6835443,6.34599156 L26.6329114,5.70464135 L26.9029536,5.68776371 C27.5611814,6.04219409 27.9156118,6.48101266 27.9493671,7.00421941 C27.9831224,7.35864979 27.7974684,7.79746835 27.3755274,8.32067511 C27.2067511,8.33755274 27.1054852,8.21940928 27.0886076,7.96624473 L26.8185654,7.98312236 L26.7510549,8.74261603 C25.6202532,10.4303797 24.8101266,11.2911392 24.3037975,11.3417722 C23.8481013,11.9662447 23.5611814,12.2869198 23.443038,12.3037975 C23.0886076,12.7257384 22.1265823,13.4514768 20.5400844,14.464135 C20.0168776,14.5147679 18.0759494,15.257384 14.7172996,16.7257384 C14.5485232,16.6413502 14.3797468,16.6244726 14.1772152,16.6413502 L14.1603376,16.4050633 C14.1265823,15.9156118 14.3291139,15.3080169 14.8185654,14.5654008 Z M30.3291139,6.80168776 L30.3459916,7.03797468 C30.2109705,7.05485232 29.9578059,6.64978903 29.5864979,5.83966245 L29.5696203,5.60337553 C29.8059072,5.56962025 30.0590717,5.97468354 30.3291139,6.80168776 Z M5.68776371,9.80590717 L5.70464135,9.92405063 C5.62025316,9.92405063 5.48523207,9.99156118 5.3164557,10.0759494 L5.1814346,10.092827 L5.16455696,9.85654008 L5.68776371,9.80590717 Z M13.8396624,9.60337553 L13.8734177,9.97468354 C13.7552743,9.99156118 13.5864979,10.1603376 13.3839662,10.5147679 L13.3670886,10.2616034 C13.6033755,9.97468354 13.721519,9.75527426 13.721519,9.60337553 L13.8396624,9.60337553 Z M12.6011507,12.2362869 L12.6556962,12.742616 L12.5102417,12.7594937 L12.4556962,12.2531646 L12.6011507,12.2362869 Z M12.2700422,13.1476793 C12.2362869,13.5696203 12.1350211,13.7890295 11.9156118,13.8059072 L11.7805907,13.8227848 C11.9324895,13.535865 12.0168776,13.3333333 12,13.1814346 L12.2700422,13.1476793 Z M11.7130802,14.464135 L11.7299578,14.5822785 L11.4936709,14.9873418 L11.2405063,15.0042194 L11.2236287,14.8860759 C11.4767932,14.8691983 11.5949367,14.7341772 11.5780591,14.4810127 L11.7130802,14.464135 L11.7130802,14.464135 Z M11.1392405,15.6455696 L11.07173,16.2700422 L10.9367089,16.2869198 L10.8860759,15.6624473 L11.1392405,15.6455696 Z M24.8270042,16.1012658 L25.3839662,16.4388186 C25.4008439,16.6075949 25.3164557,16.7088608 25.1476793,16.7257384 C24.9113924,16.5738397 24.7257384,16.5063291 24.5907173,16.5063291 L24.556962,16.1350211 L24.8270042,16.1012658 Z M14.1097046,17.535865 L14.1265823,17.7721519 L13.6033755,17.8227848 L13.5864979,17.5864979 L14.1097046,17.535865 Z M22.7510549,18.4135021 C23.1223629,18.5822785 23.3080169,18.7510549 23.3248945,18.8860759 L23.3417722,19.0042194 C22.9873418,19.0379747 22.6666667,18.8523207 22.3628692,18.4472574 L22.7510549,18.4135021 Z M11.6118143,21.1476793 C13.1308017,21.0126582 15.5274262,20.3037975 18.7848101,19.021097 L19.5780591,18.9535865 C21.2320675,18.8185654 22.464135,19.1223629 23.2742616,19.8987342 L23.3248945,20.4050633 C22.7172996,22.1603376 22.0421941,23.1729958 21.3164557,23.4936709 L17.9409283,26.1772152 C15.4261603,27.8312236 14.0759494,28.6582278 13.8734177,28.6751055 C9.87341772,30.8860759 7.37552743,32.0168776 6.41350211,32.1012658 L6.26160338,32.1181435 C6.39662447,31.6455696 8.16877637,28 11.6118143,21.1476793 Z M15.257384,19.7130802 L15.2742616,19.8530802 L14.7341772,19.9130802 L14.7172996,19.7730802 L15.257384,19.7130802 Z M27.3755274,19.1729958 L27.4599156,20.1687764 C27.3417722,20.4388186 27.2236287,20.5738397 27.0886076,20.5738397 L26.9367089,18.8185654 C27.2236287,18.9367089 27.3586498,19.0548523 27.3755274,19.1729958 Z M6.83544304,27.8818565 C6.66666667,28.742616 6.48101266,29.1814346 6.29535865,29.1983122 L6.27848101,29.0801688 C6.24472574,28.6413502 6.43037975,28.2531646 6.83544304,27.8818565 L6.83544304,27.8818565 Z M10.2109705,32.6413502 C11.1898734,32.4556962 13.8734177,31.0379747 18.278481,28.4219409 L18.2953586,28.6582278 C18.3122363,28.7594937 17.9240506,29.0801688 17.164557,29.6371308 C14.9198312,30.7341772 13.6033755,31.4936709 13.2151899,31.8818565 C10.7848101,32.7257384 9.58649789,33.2489451 9.60337553,33.4514768 C7.44303797,34.3122363 6.02531646,34.9367089 5.35021097,35.3248945 C5.19831224,35.3417722 4.96202532,35.2742616 4.65822785,35.1392405 C4.62447257,34.7004219 4.81012658,34.3459916 5.24894515,34.0590717 C5.62025316,34.0253165 5.99156118,34.0759494 6.32911392,34.2278481 C6.73417722,34.0253165 7.42616034,33.7890295 8.42194093,33.5527426 L8.40506329,33.2995781 L7.61181435,33.3670886 C7.71308017,33.2320675 8.47257384,32.8776371 9.92405063,32.2869198 L10.3291139,32.2531646 L10.3459916,32.371308 C9.67088608,32.4219409 9.28270042,32.6413502 9.19831224,32.9957806 C9.21518987,33.1476793 9.29957806,33.2320675 9.46835443,33.2151899 C9.95780591,32.8776371 10.2109705,32.6919831 10.2109705,32.6413502 L10.2109705,32.6413502 Z M6.05907173,29.5864979 L6.07594937,29.7046414 C6.092827,29.8734177 6.00843882,29.9746835 5.83966245,29.9915612 L5.82278481,29.8734177 C5.80590717,29.721519 5.89029536,29.6202532 6.05907173,29.5864979 Z M12.371308,31.3080169 C12.0506329,31.3417722 11.4599156,31.5949367 10.5654008,32.1012658 L10.4303797,32.1181435 L10.4135021,31.8649789 C11.0548523,31.814346 11.6118143,31.5611814 12.0675105,31.1054852 C12.2531646,31.07173 12.3544304,31.1561181 12.371308,31.3080169 Z M5.82278481,33.1308017 L6.2278481,33.0970464 L6.24472574,33.2320675 C6.14345992,33.2320675 6.02531646,33.2995781 5.85654008,33.3839662 L5.60337553,33.4008439 C5.58649789,33.2827004 5.65400844,33.1814346 5.82278481,33.1308017 Z M3.13924051,34.6329114 L3.42616034,34.7510549 C3.32489451,35.5105485 3.10548523,35.8987342 2.71729958,35.9324895 C2.41350211,35.7974684 2.14345992,35.7468354 1.89029536,35.7637131 L1.85654008,35.3924051 C1.83966245,35.2405063 1.92405063,35.1561181 2.10970464,35.1054852 C2.27848101,35.0886076 2.37974684,35.2067511 2.39662447,35.4599156 C2.85232068,34.9029536 3.10548523,34.6329114 3.13924051,34.6329114 L3.13924051,34.6329114 Z M78.0084388,1.46835443 L77.7890295,1.38396624 L74.1940928,1.94092827 C74.0590717,1.87341772 73.8902954,1.83966245 73.7046414,1.85654008 C73.5021097,1.87341772 73.1983122,1.94092827 72.742616,2.05907173 L71.0042194,2.78481013 L71.1392405,3.00421941 C71.2236287,3.00421941 71.3417722,2.9535865 71.4936709,2.86919831 L72.1012658,2.91983122 L72.0168776,3.49367089 C71.4599156,3.74683544 71.1223629,4.11814346 71.0379747,4.60759494 C70.1940928,4.97890295 69.7721519,5.24894515 69.7721519,5.41772152 L69.7890295,5.51898734 L69.9240506,5.5021097 L70.1603376,5.38396624 L70.4303797,5.70464135 L70.464135,6.14345992 C70.4810127,6.27848101 69.0464135,9.29957806 66.1772152,15.1898734 C63.6962025,20.8607595 62.3966245,23.9662447 62.2616034,24.5232068 C61.4177215,24.7594937 60.9113924,25.1139241 60.7763713,25.5696203 C60.7932489,25.721519 61.0464135,25.8059072 61.535865,25.8565401 L61.5527426,26.0759494 L61.3333333,26.4472574 L61.3670886,26.8860759 C61.3839662,27.1223629 62.0084388,27.2911392 63.2236287,27.4261603 C63.2236287,27.3417722 63.257384,27.3080169 63.3417722,27.2911392 C63.3586498,27.5611814 63.2911392,28.1012658 63.1054852,28.9113924 L63.2405063,28.8945148 C63.7468354,28.2025316 63.9831224,27.7299578 63.9662447,27.4599156 L64.0675105,27.443038 C64.185654,27.4261603 64.3206751,27.5780591 64.4725738,27.8818565 C64.3206751,27.9493671 63.7805907,29.164557 62.8691983,31.5443038 L63.0042194,31.7637131 L63.1392405,31.7468354 C64.2700422,28.8945148 64.978903,27.3080169 65.2658228,27.0042194 C66.7510549,26.8691983 69.2995781,26.6160338 72.9451477,26.2278481 L73.164557,26.092827 C73.164557,26.1772152 73.2151899,26.2109705 73.2995781,26.1940928 L73.535865,26.1772152 L73.7552743,26.0421941 C73.7552743,26.1265823 73.8059072,26.1603376 73.8902954,26.1434599 L76.6413502,25.907173 C77.3670886,25.8396624 77.721519,25.6202532 77.6877637,25.2489451 C77.6708861,25.1476793 78.1097046,25.0295359 78.9873418,24.9113924 C79.07173,24.9113924 79.1898734,24.92827 79.3586498,24.978903 C79.3586498,24.9113924 79.7805907,24.8438819 80.6582278,24.7594937 C80.6751055,24.3037975 80.8270042,24.0506329 81.0970464,24.0337553 L81.0801688,23.814346 C80.8438819,23.8312236 80.556962,23.8987342 80.2362869,24 C79.6624473,23.9662447 79.2911392,23.9324895 79.1392405,23.8649789 C78.9873418,23.9493671 78.8691983,24 78.7848101,24 L76.8607595,24.0675105 L76.6244726,24.185654 C76.6244726,24.1181435 76.5738397,24.0843882 76.4894515,24.1012658 L76.3881857,24.1181435 L76.1350211,24.2362869 C76.1350211,24.1687764 75.9324895,24.1181435 75.5274262,24.0675105 L75.2911392,24.2025316 L74.8185654,24.2362869 L74.8016878,24.1181435 C77.2658228,23.8481013 78.4978903,23.5105485 78.464135,23.1054852 C78.6160338,23.0886076 78.7004219,23.1729958 78.7172996,23.3248945 L79.443038,23.1392405 L79.4261603,22.9198312 L73.5189873,23.0886076 C73.5189873,23.1729958 73.4852321,23.2067511 73.4008439,23.2236287 L72.6751055,23.1561181 C72.4894515,23.1729958 72.3375527,23.2236287 72.2194093,23.3248945 L71.9493671,23.2236287 C71.2067511,23.2911392 70.649789,23.3755274 70.278481,23.4936709 C69.7721519,23.4599156 69.2151899,23.4599156 68.5907173,23.5105485 L67.257384,23.628692 L66.649789,23.5611814 C66.6160338,23.1729958 67.3755274,21.2489451 68.9451477,17.7890295 C69.4008439,16.6244726 69.8227848,15.8987342 70.2109705,15.628692 C70.2953586,15.628692 70.4135021,15.6455696 70.5822785,15.7130802 L71.5274262,15.3924051 L72.0168776,15.4767932 C72.8270042,15.4092827 73.7721519,15.1729958 74.8523207,14.7848101 C75.1223629,14.7679325 75.3248945,14.7848101 75.4599156,14.835443 L76.185654,14.6666667 L78.3291139,14.4810127 C79.2405063,14.3966245 80.2362869,14.1940928 81.2995781,13.8734177 L81.2827004,13.6540084 C80.8776371,13.6877637 80.6751055,13.6202532 80.6582278,13.4683544 C80.6244726,13.164557 80.3375527,13.0464135 79.7805907,13.0970464 L79.7637131,12.8776371 L80.3544304,12.7088608 L81.907173,12.5738397 L81.8902954,12.3544304 C81.8227848,12.3544304 81.5189873,12.3544304 80.92827,12.3375527 L80.9113924,12.1012658 L81.5189873,12.0506329 C81.6708861,12.0337553 81.7552743,11.9493671 81.7383966,11.814346 C80.92827,11.8312236 80.5232068,11.7974684 80.5232068,11.6962025 C74.9029536,11.9662447 72.1012658,12.0168776 72.0843882,11.8481013 C72,11.8481013 71.8818565,11.8987342 71.7299578,12 L71.5780591,11.7637131 C73.0632911,8.60759494 73.9409283,7.00421941 74.1940928,6.98734177 C74.2109705,7.10548523 74.1434599,7.30801688 74.0084388,7.57805907 L74.0253165,7.67932489 L74.2616034,7.66244726 C74.8523207,6.24472574 75.3417722,5.51898734 75.7637131,5.48523207 C77.5189873,5.33333333 75.5105485,5.21518987 79.2911392,4.62447257 C79.443038,4.69198312 79.5611814,4.7257384 79.628692,4.70886076 C81.1139241,4.40506329 83.1729958,4.10126582 85.8227848,3.78059072 L85.8059072,3.56118143 L84.3881857,3.69620253 L84.371308,3.47679325 C84.5400844,3.45991561 84.6751055,3.4092827 84.7932489,3.30801688 L84.8101266,3.42616034 C84.8945148,3.42616034 84.9957806,3.37552743 85.1308017,3.2742616 C85.3670886,3.25738397 85.5527426,3.2742616 85.6877637,3.34177215 C86.1772152,3.20675105 86.5654008,3.13924051 86.8691983,3.10548523 L87.7468354,3.02109705 C87.9662447,2.88607595 88.0675105,2.76793249 88.0506329,2.64978903 L88.0506329,2.54852321 C87.8312236,2.56540084 87.5780591,2.54852321 87.2742616,2.4978903 C87.257384,2.37974684 87.3248945,2.29535865 87.4767932,2.26160338 L89.1139241,2.10970464 L89.8734177,1.92405063 C89.8734177,2.00843882 89.9240506,2.04219409 89.9746835,2.04219409 C90.0590717,2.04219409 90.1603376,1.99156118 90.2953586,1.89029536 C90.6835443,1.94092827 90.9198312,1.95780591 90.9704641,1.94092827 C91.2742616,1.65400844 91.628692,1.41772152 92.0168776,1.26582278 C91.8481013,1.09704641 91.7637131,0.962025316 91.7468354,0.843881857 L90.649789,0.945147679 C90.649789,0.860759494 90.5991561,0.759493671 90.5316456,0.607594937 C90.5316456,0.506329114 90.7679325,0.405063291 91.2742616,0.303797468 L91.4936709,0.388185654 L91.6962025,0.270042194 C91.6962025,0.337552743 91.7468354,0.371308017 91.814346,0.35443038 L92.0168776,0.23628692 C92.0168776,0.303797468 92.0675105,0.337552743 92.1350211,0.320675105 L92.2362869,0.303797468 L92.2194093,0.0843881857 C92.0675105,0.101265823 91.6624473,0.101265823 91.021097,0.0843881857 L90.8185654,0.219409283 L90.8016878,0.101265823 C85.6540084,0.523206751 82.7341772,0.759493671 82.0421941,0.827004219 C81.9578059,0.827004219 81.5864979,0.827004219 80.9620253,0.810126582 C80.9620253,0.894514768 80.8945148,0.945147679 80.742616,0.945147679 L80.5232068,0.843881857 L79.7637131,1.02953586 C79.5949367,1.0464135 79.2911392,1.02953586 78.8691983,0.995780591 C78.7510549,1.08016878 78.6160338,1.14767932 78.4472574,1.16455696 C78.278481,1.1814346 82.5316456,0.928270042 82.3966245,0.860759494 L81.7383966,1.0464135 L81.6371308,1.06329114 C81.3670886,1.08016878 81.0295359,1.08016878 80.6244726,1.02953586 C80.5063291,1.11392405 80.3375527,1.1814346 80.0843882,1.19831224 C79.9156118,1.21518987 79.7637131,1.1814346 79.6455696,1.11392405 C79.4599156,1.16455696 78.9198312,1.29957806 78.0084388,1.46835443 L78.0084388,1.46835443 Z M78.278481,2.14345992 C78.278481,2.2278481 78.3628692,2.26160338 78.4978903,2.24472574 L78.5147679,2.46413502 L78.2953586,2.48101266 C78.1265823,2.4978903 77.9746835,2.46413502 77.8565401,2.39662447 C77.7383966,2.4978903 77.5864979,2.54852321 77.4345992,2.56540084 L77.5021097,2.56540084 L76.8945148,2.4978903 L76.8776371,2.39662447 C77.6202532,2.34599156 77.8565401,2.26160338 78.278481,2.14345992 L78.278481,2.14345992 Z M78.835443,2.092827 L78.9535865,2.07594937 L78.9704641,2.29535865 L78.6329114,2.32911392 C78.6329114,2.21097046 78.6835443,2.12658228 78.835443,2.092827 Z M80.1350211,1.95780591 L80.1518987,2.07594937 C79.8987342,2.092827 79.5780591,2.16033755 79.1898734,2.27848101 L79.07173,2.29535865 L79.1729958,2.05907173 L80.1350211,1.95780591 L80.1350211,1.95780591 Z M70.5485232,3.05485232 L70.9198312,3.02109705 L70.9029536,2.80168776 L70.5316456,2.83544304 L70.5485232,3.05485232 Z M73.1983122,2.8185654 L73.3333333,2.80168776 L73.5864979,2.90295359 C73.6033755,3.05485232 73.5189873,3.13924051 73.3670886,3.13924051 L72.9957806,3.17299578 L72.978903,3.05485232 C72.9620253,2.93670886 73.0464135,2.86919831 73.1983122,2.8185654 Z M81.6877637,3.30801688 L81.6877637,3.42801688 L80.92827,3.50801688 L80.92827,3.38801688 L81.6877637,3.30801688 Z M79.5105485,3.62869198 L79.5274262,3.76869198 L79.0886076,3.80869198 L79.07173,3.66869198 L79.5105485,3.62869198 Z M81.6033755,3.79746835 L83.1223629,3.5443038 L83.8987342,3.57805907 L83.9156118,3.69620253 C83.5443038,3.72995781 83.2236287,3.79746835 82.9535865,3.89873418 C82.9535865,3.81434599 82.8016878,3.74683544 82.4978903,3.71308017 L81.2995781,4.05063291 C81.0632911,3.91561181 80.9451477,3.81434599 80.9451477,3.74683544 L81.6033755,3.79746835 L81.6033755,3.79746835 Z M80.1012658,4.1350211 C80.2531646,4.11814346 80.3206751,4.18565401 80.3375527,4.33755274 L79.6962025,4.40506329 L79.6793249,4.18565401 L80.1012658,4.1350211 L80.1012658,4.1350211 Z M78.7679325,4.06751055 L78.7848101,4.18565401 L82.7341772,4 L82.7172996,3.88185654 L78.7679325,4.06751055 Z M79.0042194,4.37130802 L79.0042194,4.48039893 L78.1434599,4.57130802 L78.1434599,4.46221711 L79.0042194,4.37130802 Z M73.350211,8.84388186 L73.3670886,8.96202532 L73.6202532,8.94514768 C73.6202532,8.86075949 73.6371308,8.74261603 73.7046414,8.5907173 L73.6877637,8.37130802 C73.5527426,8.38818565 73.4345992,8.54008439 73.350211,8.84388186 L73.350211,8.84388186 Z M64.6582278,21.4683544 L64.6751055,21.5696203 C64.6919831,21.721519 64.6075949,21.8059072 64.4388186,21.8227848 L64.4219409,21.721519 C64.4050633,21.5864979 64.4894515,21.5189873 64.6582278,21.4683544 Z M64.4388186,21.9409283 C64.4556962,22.1603376 64.3037975,22.7004219 64,23.5780591 L63.628692,23.6118143 C63.6118143,23.4599156 63.814346,22.9198312 64.2025316,21.9746835 L64.4388186,21.9409283 L64.4388186,21.9409283 Z M68.5063291,25.4683544 C68.5232068,25.5864979 68.3206751,25.721519 67.9324895,25.8565401 L67.1898734,25.8059072 L66.9535865,25.8227848 L66.9367089,25.6033755 L68.5063291,25.4683544 L68.5063291,25.4683544 Z M69.2320675,25.535865 L69.2489451,25.655865 L68.6413502,25.715865 L68.6244726,25.595865 L69.2320675,25.535865 Z" id="Shape"></path>
                    </g>
                </g>
            </g>
        </g>
    </g>
</svg>