<?xml version="1.0" encoding="UTF-8"?>
<svg width="84px" height="119px" viewBox="0 0 84 119" version="1.1" xmlns="http://www.w3.org/2000/svg" xmlns:xlink="http://www.w3.org/1999/xlink">
    <!-- Generator: Sketch 45.2 (43514) - http://www.bohemiancoding.com/sketch -->
    <title>Icon</title>
    <desc>Created with Sketch.</desc>
    <defs></defs>
    <g id="New" stroke="none" stroke-width="1" fill="none" fill-rule="evenodd">
        <g id="2" transform="translate(-678.000000, -730.000000)" fill-rule="nonzero">
            <g id="Features" transform="translate(424.000000, 397.000000)">
                <g id="CSS" transform="translate(254.000000, 333.000000)">
                    <g id="Icon">
                        <polygon id="Shape" fill="#264DE4" points="83.7086466 23.3865205 76.1035397 108.583003 41.9183014 118.060274 7.82718904 108.596351 0.230136986 23.3865205"></polygon>
                        <polygon id="Shape" fill="#2965F1" points="69.5927342 103.157984 76.0918027 30.3536877 41.9693918 30.3536877 41.9693918 110.816252"></polygon>
                        <polygon id="Shape" fill="#EBEBEB" points="17.6462137 61.956789 18.5828712 72.4073096 41.9693918 72.4073096 41.9693918 61.956789"></polygon>
                        <polygon id="Shape" fill="#EBEBEB" points="41.9693918 40.8044384 41.9332603 40.8044384 15.7641534 40.8044384 16.7141589 51.255189 41.9693918 51.255189"></polygon>
                        <polygon id="Shape" fill="#EBEBEB" points="41.9693918 99.9712767 41.9693918 89.0982247 41.9235945 89.1104219 30.2846466 85.9676712 29.5406137 77.6328 23.8849973 77.6328 19.0498192 77.6328 20.5139507 94.0417973 41.9212932 99.9846247"></polygon>
                        <polygon id="Shape" fill="#000000" points="19.8762411 0.230136986 32.5337753 0.230136986 32.5337753 5.52328767 25.1693918 5.52328767 25.1693918 10.8164384 32.5337753 10.8164384 32.5337753 16.109589 19.8762411 16.109589"></polygon>
                        <polygon id="Shape" fill="#000000" points="35.0652822 0.230136986 47.7228164 0.230136986 47.7228164 4.83287671 40.3584329 4.83287671 40.3584329 5.75342466 47.7228164 5.75342466 47.7228164 16.339726 35.0652822 16.339726 35.0652822 11.5068493 42.4296658 11.5068493 42.4296658 10.5863014 35.0652822 10.5863014"></polygon>
                        <polygon id="Shape" fill="#000000" points="50.2543233 0.230136986 62.9118575 0.230136986 62.9118575 4.83287671 55.547474 4.83287671 55.547474 5.75342466 62.9118575 5.75342466 62.9118575 16.339726 50.2543233 16.339726 50.2543233 11.5068493 57.6187068 11.5068493 57.6187068 10.5863014 50.2543233 10.5863014"></polygon>
                        <polygon id="Shape" fill="#FFFFFF" points="54.8020603 72.4073096 53.5890082 85.9609973 41.9332603 89.1069699 41.9332603 99.9795616 63.3576329 94.0417973 63.5148164 92.2761863 65.9706082 64.7630795 66.2256 61.956789 68.112263 40.8044384 41.9332603 40.8044384 41.9332603 51.255189 56.6592658 51.255189 55.7083397 61.956789 41.9332603 61.956789 41.9332603 72.4073096"></polygon>
                    </g>
                </g>
            </g>
        </g>
    </g>
</svg>