<?xml version="1.0" encoding="UTF-8"?>
<svg width="84px" height="119px" viewBox="0 0 84 119" version="1.1" xmlns="http://www.w3.org/2000/svg" xmlns:xlink="http://www.w3.org/1999/xlink">
    <!-- Generator: Sketch 45.2 (43514) - http://www.bohemiancoding.com/sketch -->
    <title>Icon</title>
    <desc>Created with Sketch.</desc>
    <defs></defs>
    <g id="New" stroke="none" stroke-width="1" fill="none" fill-rule="evenodd">
        <g id="2" transform="translate(-882.000000, -731.000000)" fill-rule="nonzero">
            <g id="Features" transform="translate(424.000000, 397.000000)">
                <g id="HTML" transform="translate(458.000000, 334.000000)">
                    <g id="Icon">
                        <polygon id="Shape" fill="#E44D26" points="7.76374737 108.660387 0.14607217 23.2192444 83.8511945 23.2192444 76.2254427 108.647003 41.9474043 118.150002"></polygon>
                        <polygon id="Shape" fill="#F16529" points="41.9986334 110.886315 69.6969628 103.207257 76.2136738 30.2053248 41.9986334 30.2053248"></polygon>
                        <polygon id="Shape" fill="#EBEBEB" points="41.9986334 61.8942167 28.1321615 61.8942167 27.1745004 51.1635659 41.9986334 51.1635659 41.9986334 40.6844453 41.9624038 40.6844453 15.7222576 40.6844453 15.9730956 43.4958154 18.5486272 72.3731065 41.9986334 72.3731065"></polygon>
                        <polygon id="Shape" fill="#EBEBEB" points="41.9986334 89.1093311 41.9527118 89.1215615 30.2821685 85.9702794 29.5361158 77.6127822 23.8651465 77.6127822 19.0168427 77.6127822 20.4849488 94.0663237 41.9504042 100.025284 41.9986334 100.011899"></polygon>
                        <polygon id="Shape" fill="#000000" points="7.93404952 0 13.2593378 0 13.2593378 5.26136726 18.1307177 5.26136726 18.1307177 0 23.4562367 0 23.4562367 15.9327123 18.1309485 15.9327123 18.1309485 10.5975013 13.2595685 10.5975013 13.2595685 15.9327123 7.93428028 15.9327123 7.93428028 0"></polygon>
                        <polygon id="Shape" fill="#000000" points="30.4591627 5.28352038 25.7710076 5.28352038 25.7710076 0 40.4751445 0 40.4751445 5.28352038 35.7849125 5.28352038 35.7849125 15.9327123 30.4593935 15.9327123 30.4593935 5.28352038"></polygon>
                        <polygon id="Shape" fill="#000000" points="42.8088378 0 48.3616571 0 51.7773921 5.59827937 55.1896657 0 60.7445618 0 60.7445618 15.9327123 55.4411959 15.9327123 55.4411959 8.03558467 51.7773921 13.7005542 51.6857797 13.7005542 48.0194374 8.03558467 48.0194374 15.9327123 42.8088378 15.9327123 42.8088378 0"></polygon>
                        <polygon id="Shape" fill="#000000" points="63.3948602 0 68.7217638 0 68.7217638 10.6662683 76.2106739 10.6662683 76.2106739 15.9327123 63.3948602 15.9327123"></polygon>
                        <polygon id="Shape" fill="#FFFFFF" points="41.9624038 61.8942167 41.9624038 72.3731065 54.8661377 72.3731065 53.6497927 85.9635873 41.9624038 89.1181001 41.9624038 100.020207 63.4449355 94.0663237 63.6025457 92.2959197 66.0650041 64.7081252 66.3206881 61.8942167 63.4968569 61.8942167"></polygon>
                        <polygon id="Shape" fill="#FFFFFF" points="41.9624038 40.6844453 41.9624038 47.1928489 41.9624038 51.1379513 41.9624038 51.1635659 67.2405043 51.1635659 67.2405043 51.1635659 67.2741955 51.1635659 67.4844194 48.808181 67.9618654 43.4958154 68.2124727 40.6844453"></polygon>
                    </g>
                </g>
            </g>
        </g>
    </g>
</svg>