<?xml version="1.0" encoding="UTF-8"?>
<svg width="75px" height="74px" viewBox="0 0 75 74" version="1.1" xmlns="http://www.w3.org/2000/svg" xmlns:xlink="http://www.w3.org/1999/xlink">
    <!-- Generator: Sketch 45.2 (43514) - http://www.bohemiancoding.com/sketch -->
    <title>Icon</title>
    <desc>Created with Sketch.</desc>
    <defs>
        <linearGradient x1="50%" y1="0%" x2="50%" y2="100%" id="linearGradient-1">
            <stop stop-color="#FF3334" offset="0%"></stop>
            <stop stop-color="#FF3334" offset="26.8129733%"></stop>
            <stop stop-color="#00CC99" offset="73.5869739%"></stop>
            <stop stop-color="#00CC99" offset="100%"></stop>
        </linearGradient>
        <linearGradient x1="50%" y1="0%" x2="50%" y2="100%" id="linearGradient-2">
            <stop stop-color="#9900CC" offset="0%"></stop>
            <stop stop-color="#9900CC" offset="26.8129733%"></stop>
            <stop stop-color="#99CC32" offset="73.4187589%"></stop>
            <stop stop-color="#99CC32" offset="100%"></stop>
        </linearGradient>
        <linearGradient x1="50%" y1="0%" x2="50%" y2="100%" id="linearGradient-3">
            <stop stop-color="#FF9900" offset="0%"></stop>
            <stop stop-color="#FF9A02" offset="26.8129733%"></stop>
            <stop stop-color="#0099CB" offset="73.4187589%"></stop>
            <stop stop-color="#0099CB" offset="100%"></stop>
        </linearGradient>
        <linearGradient x1="50%" y1="0%" x2="50%" y2="100%" id="linearGradient-4">
            <stop stop-color="#FCCF70" offset="0%"></stop>
            <stop stop-color="#FFCC00" offset="26.8129733%"></stop>
            <stop stop-color="#6766FF" offset="73.4187589%"></stop>
            <stop stop-color="#6665FE" offset="100%"></stop>
        </linearGradient>
    </defs>
    <g id="New" stroke="none" stroke-width="1" fill="none" fill-rule="evenodd">
        <g id="2" transform="translate(-466.000000, -981.000000)">
            <g id="Features" transform="translate(424.000000, 397.000000)">
                <g id="Images" transform="translate(39.000000, 584.000000)">
                    <g id="Icon" transform="translate(4.000000, 0.000000)">
                        <rect id="Shape" fill="#FFFFFF" x="6.01626016" y="6.61788618" width="61.9674797" height="60.7642276" rx="30.3821138"></rect>
                        <circle id="Shape" fill="#0C303B" cx="37.4404762" cy="37.4404762" r="11.8928571"></circle>
                        <path d="M25.2381267,8.60432592 C26.816201,3.61598073 31.484502,0 37,0 C42.5126043,0 47.1804899,3.6231827 48.7602968,8.60514484 C47.6685915,9.17232365 46.6440658,9.91396696 45.7279633,10.8300694 L37,19.5580327 L28.2720367,10.8300694 C27.3554933,9.91352599 26.3304221,9.1716097 25.2381267,8.60432592 Z M48.7618733,65.3956741 C47.183799,70.3840193 42.515498,74 37,74 C31.4873957,74 26.8195101,70.3768173 25.2397032,65.3948552 C26.3314085,64.8276763 27.3559342,64.086033 28.2720367,63.1699306 L37,54.4419673 L45.7279633,63.1699306 C46.6445067,64.086474 47.6695779,64.8283903 48.7618733,65.3956741 Z" id="Shape" fill="url(#linearGradient-1)"></path>
                        <path d="M25.2381267,8.60432592 C26.816201,3.61598073 31.484502,-5.68434189e-14 37,-5.68434189e-14 C42.5126043,-5.68434189e-14 47.1804899,3.6231827 48.7602968,8.60514484 C47.6685915,9.17232365 46.6440658,9.91396696 45.7279633,10.8300694 L37,19.5580327 L28.2720367,10.8300694 C27.3554933,9.91352599 26.3304221,9.1716097 25.2381267,8.60432592 Z M48.7618733,65.3956741 C47.183799,70.3840193 42.515498,74 37,74 C31.4873957,74 26.8195101,70.3768173 25.2397032,65.3948552 C26.3314085,64.8276763 27.3559342,64.086033 28.2720367,63.1699306 L37,54.4419673 L45.7279633,63.1699306 C46.6445067,64.086474 47.6695779,64.8283903 48.7618733,65.3956741 Z" id="Shape" fill="url(#linearGradient-2)" transform="translate(37.000000, 37.000000) rotate(-315.000000) translate(-37.000000, -37.000000) "></path>
                        <path d="M25.2381267,8.60432592 C26.816201,3.61598073 31.484502,-5.68434189e-14 37,-5.68434189e-14 C42.5126043,-5.68434189e-14 47.1804899,3.6231827 48.7602968,8.60514484 C47.6685915,9.17232365 46.6440658,9.91396696 45.7279633,10.8300694 L37,19.5580327 L28.2720367,10.8300694 C27.3554933,9.91352599 26.3304221,9.1716097 25.2381267,8.60432592 Z M48.7618733,65.3956741 C47.183799,70.3840193 42.515498,74 37,74 C31.4873957,74 26.8195101,70.3768173 25.2397032,65.3948552 C26.3314085,64.8276763 27.3559342,64.086033 28.2720367,63.1699306 L37,54.4419673 L45.7279633,63.1699306 C46.6445067,64.086474 47.6695779,64.8283903 48.7618733,65.3956741 Z" id="Shape" fill="url(#linearGradient-3)" transform="translate(37.000000, 37.000000) rotate(-45.000000) translate(-37.000000, -37.000000) "></path>
                        <path d="M25.2381267,8.60432592 C26.816201,3.61598073 31.484502,-2.84217094e-14 37,-2.84217094e-14 C42.5126043,-2.84217094e-14 47.1804899,3.6231827 48.7602968,8.60514484 C47.6685915,9.17232365 46.6440658,9.91396696 45.7279633,10.8300694 L37,19.5580327 L28.2720367,10.8300694 C27.3554933,9.91352599 26.3304221,9.1716097 25.2381267,8.60432592 Z M48.7618733,65.3956741 C47.183799,70.3840193 42.515498,74 37,74 C31.4873957,74 26.8195101,70.3768173 25.2397032,65.3948552 C26.3314085,64.8276763 27.3559342,64.086033 28.2720367,63.1699306 L37,54.4419673 L45.7279633,63.1699306 C46.6445067,64.086474 47.6695779,64.8283903 48.7618733,65.3956741 Z" id="Shape" fill="url(#linearGradient-4)" transform="translate(37.000000, 37.000000) rotate(-90.000000) translate(-37.000000, -37.000000) "></path>
                        <path d="M25.2381267,8.60432592 C26.816201,3.61598073 31.484502,0 37,0 C42.5126043,0 47.1804899,3.6231827 48.7602968,8.60514484 C47.6685915,9.17232365 46.6440658,9.91396696 45.7279633,10.8300694 L37,19.5580327 L28.2720367,10.8300694 C27.3554933,9.91352599 26.3304221,9.1716097 25.2381267,8.60432592 Z M48.7618733,65.3956741 C47.183799,70.3840193 42.515498,74 37,74 C31.4873957,74 26.8195101,70.3768173 25.2397032,65.3948552 C26.3314085,64.8276763 27.3559342,64.086033 28.2720367,63.1699306 L37,54.4419673 L45.7279633,63.1699306 C46.6445067,64.086474 47.6695779,64.8283903 48.7618733,65.3956741 Z" id="Shape" fill="url(#linearGradient-1)"></path>
                        <path d="M25.2381267,8.60432592 C26.816201,3.61598073 31.484502,-5.68434189e-14 37,-5.68434189e-14 C42.5126043,-5.68434189e-14 47.1804899,3.6231827 48.7602968,8.60514484 C47.6685915,9.17232365 46.6440658,9.91396696 45.7279633,10.8300694 L37,19.5580327 L28.2720367,10.8300694 C27.3554933,9.91352599 26.3304221,9.1716097 25.2381267,8.60432592 Z M48.7618733,65.3956741 C47.183799,70.3840193 42.515498,74 37,74 C31.4873957,74 26.8195101,70.3768173 25.2397032,65.3948552 C26.3314085,64.8276763 27.3559342,64.086033 28.2720367,63.1699306 L37,54.4419673 L45.7279633,63.1699306 C46.6445067,64.086474 47.6695779,64.8283903 48.7618733,65.3956741 Z" id="Shape" fill="url(#linearGradient-2)" transform="translate(37.000000, 37.000000) rotate(-315.000000) translate(-37.000000, -37.000000) "></path>
                        <path d="M25.2381267,8.60432592 C26.816201,3.61598073 31.484502,-5.68434189e-14 37,-5.68434189e-14 C42.5126043,-5.68434189e-14 47.1804899,3.6231827 48.7602968,8.60514484 C47.6685915,9.17232365 46.6440658,9.91396696 45.7279633,10.8300694 L37,19.5580327 L28.2720367,10.8300694 C27.3554933,9.91352599 26.3304221,9.1716097 25.2381267,8.60432592 Z M48.7618733,65.3956741 C47.183799,70.3840193 42.515498,74 37,74 C31.4873957,74 26.8195101,70.3768173 25.2397032,65.3948552 C26.3314085,64.8276763 27.3559342,64.086033 28.2720367,63.1699306 L37,54.4419673 L45.7279633,63.1699306 C46.6445067,64.086474 47.6695779,64.8283903 48.7618733,65.3956741 Z" id="Shape" fill="url(#linearGradient-3)" transform="translate(37.000000, 37.000000) rotate(-45.000000) translate(-37.000000, -37.000000) "></path>
                        <path d="M24.9991345,8.60432592 C26.5772088,3.61598073 31.2455098,0 36.7610078,0 C42.2736121,0 46.9414977,3.6231827 48.5213046,8.60514484 C47.4295993,9.17232365 46.4050736,9.91396696 45.4889711,10.8300694 L36.7610078,19.5580327 L28.0330445,10.8300694 C27.1165011,9.91352599 26.0914299,9.1716097 24.9991345,8.60432592 Z M48.5228811,65.3956741 C46.9448068,70.3840193 42.2765058,74 36.7610078,74 C31.2484035,74 26.5805179,70.3768173 25.000711,65.3948552 C26.0924163,64.8276763 27.116942,64.086033 28.0330445,63.1699306 L36.7610078,54.4419673 L45.4889711,63.1699306 C46.4055145,64.086474 47.4305857,64.8283903 48.5228811,65.3956741 Z" id="Shape" fill="url(#linearGradient-4)" transform="translate(36.761008, 37.000000) rotate(-90.000000) translate(-36.761008, -37.000000) "></path>
                    </g>
                </g>
            </g>
        </g>
    </g>
</svg>