<?xml version="1.0" encoding="UTF-8"?>
<svg width="86px" height="28px" viewBox="0 0 86 28" version="1.1" xmlns="http://www.w3.org/2000/svg" xmlns:xlink="http://www.w3.org/1999/xlink">
    <!-- Generator: Sketch 45.2 (43514) - http://www.bohemiancoding.com/sketch -->
    <title>Shape</title>
    <desc>Created with Sketch.</desc>
    <defs></defs>
    <g id="New" stroke="none" stroke-width="1" fill="none" fill-rule="evenodd">
        <g id="2" transform="translate(-881.000000, -1004.000000)" stroke="#FFFFFF" fill-rule="nonzero" fill="#4D4444">
            <g id="Features" transform="translate(424.000000, 397.000000)">
                <g id="HTML-Templating" transform="translate(429.000000, 608.000000)">
                    <path d="M70.868213,7.18719832 C70.868213,7.18719832 79.5732719,-5.97906881 93.0236102,4.1086849 C106.473948,14.1964386 103.514874,15.0034589 112.930111,5.45371873 C112.930111,5.45371873 114.409648,14.4654454 104.994411,20.9216077 C95.5791745,27.3777701 88.1814884,26.0327363 84.2808903,24.4186957 C80.3802922,22.8046551 73.0579281,18.2315401 70.868213,15.5414724 C70.868213,15.5414724 62.2223355,27.0867048 50.5205412,25.7527002 C38.8187469,24.4186957 33.7076184,18.2315401 32.3625846,16.2139893 C31.0175507,14.1964386 29.4035101,10.6993507 29,5.18471196 C29,5.18471196 36.5321894,18.3364527 44.7368958,7.18719832 C44.7368958,7.18719832 56.993651,-3.43829991 64.5088931,1.14961048 C64.5088931,1.14961048 68.8883232,3.54081162 70.868213,7.18719832 Z" id="Shape"></path>
                </g>
            </g>
        </g>
    </g>
</svg>