<?xml version="1.0" encoding="UTF-8"?>
<svg width="43px" height="94px" viewBox="0 0 43 94" version="1.1" xmlns="http://www.w3.org/2000/svg" xmlns:xlink="http://www.w3.org/1999/xlink">
    <!-- Generator: Sketch 45.2 (43514) - http://www.bohemiancoding.com/sketch -->
    <title>Gulp Logo</title>
    <desc>Created with Sketch.</desc>
    <defs></defs>
    <g id="New" stroke="none" stroke-width="1" fill="none" fill-rule="evenodd">
        <g id="2" transform="translate(-934.000000, -5152.000000)" fill-rule="nonzero">
            <g id="Gulpfile.js" transform="translate(463.000000, 5152.000000)">
                <g id="Gulp-Logo" transform="translate(471.000000, 0.000000)">
                    <path d="M32.7638163,91.1349929 L33.6651201,76.116583 L36.1537951,71.8683145 C36.1537951,71.8683145 30.4895477,74.1854311 21.0066749,74.1854311 C11.523636,74.1854311 5.94525088,71.9111625 5.94525088,71.9111625 L8.73436042,76.5453958 L9.72102827,91.1349929 C9.72102827,92.6991131 14.8792367,93.9669505 21.2425053,93.9669505 C27.6054417,93.9669505 32.7638163,92.6991131 32.7638163,91.1349929 M29.9207314,21.0011943 L31.812523,13.5235442 L42.2888728,2.4999682 L39.5276643,0.148141343 L28.4363286,11.891 L26.2397845,20.8248198 C24.5866191,20.7694273 22.9326373,20.7419099 21.2785442,20.7422792 C9.59730035,20.7422792 0.127713781,22.0735583 0.127713781,23.7154028 C0.127713781,25.3574134 9.59730035,26.6885265 21.2785442,26.6885265 C32.9596219,26.6885265 42.4290424,25.3574134 42.4290424,23.7154028 C42.4290424,22.5063569 37.2932544,21.4657138 29.9207314,21.0011943" id="Shape" fill="#D34A47"></path>
                    <path d="M28.8203004,25.1888445 C28.8203004,25.1888445 28.4105866,25.2806855 27.2053604,25.2858339 C25.9998021,25.2908163 25.1438375,25.2780283 24.8028799,24.9674629 C24.7112049,24.8840919 24.6610495,24.7185124 24.6615477,24.6064099 C24.6625442,24.393 24.8140071,24.2672792 25.0069894,24.1885583 L25.1895088,24.4748763 C25.1101237,24.5022792 25.0647845,24.5346643 25.0646184,24.5692085 C25.0639541,24.7313004 26.2972473,24.8422403 27.2405689,24.8302827 C28.1840565,24.8186572 29.3240141,24.7409329 29.3250106,24.5811661 C29.3250106,24.5328375 29.2388163,24.4873322 29.0888481,24.4514594 L29.2705371,24.1671343 C29.5150035,24.2430318 29.7284134,24.3896784 29.7279152,24.6434452 C29.7255901,25.0749152 29.1765371,25.1405159 28.8203004,25.1888445" id="Shape" fill="#FFFFFF"></path>
                    <path d="M42.2682792,2.52172438 C42.5316784,2.21746996 42.1319293,1.43922968 41.3754452,0.783720848 C40.618629,0.12854417 39.7915618,-0.156113074 39.5276643,0.148141343 C39.2640989,0.45239576 39.6640141,1.23063604 40.4208304,1.88581272 C41.1773145,2.54115548 42.0047138,2.82614488 42.2682792,2.52172438 M32.2599364,54.4510777 C32.0116502,52.0622155 37.4850742,48.6024841 36.0803887,48.4917102 C33.0564452,48.6645972 31.5514488,52.035477 30.0300106,55.5659576 C29.4724876,56.8598693 27.5647527,62.3773039 26.313523,61.6980459 C25.0626254,61.0191201 27.9352721,56.4820424 28.740417,53.7875972 C27.8113781,54.4688481 24.4042933,57.1159611 23.5262403,54.6369187 C22.1145795,55.8358339 19.0981095,56.485364 19.4384028,53.3360318 C18.6873993,54.6663145 17.0018763,56.5235618 14.9787173,55.7517986 C12.3218057,54.7385583 16.518258,46.2750707 17.5617244,46.7020565 C18.6053569,47.1288763 17.3511378,49.0568728 17.022636,49.8055512 C16.3001979,51.4532085 15.4656572,53.52453 16.0231802,53.9485265 C16.9782933,54.6749505 19.5774099,51.2004382 19.6352049,51.1240424 C20.1213145,50.4818198 21.5062367,46.2802191 22.6224452,46.7626749 C23.7386537,47.2451307 19.838318,52.7926254 21.2966466,53.8935548 C21.5907703,54.1157668 22.7941696,53.7565406 23.5262403,52.9645159 C23.999894,52.4521661 23.8369717,51.3173569 25.4158728,47.5520424 C26.9947739,43.786894 28.4019505,39.0978551 29.4847774,39.4550883 C30.5676042,39.8121555 29.6751025,42.218788 29.2866466,43.1159399 C27.4637774,47.3266749 24.3116219,54.2831731 25.7981837,53.7565406 C27.2847456,53.2300742 28.0588339,53.1991837 29.5145053,51.4957244 C30.9701767,49.792265 30.9030813,46.9863816 31.8733074,47.0460035 C32.8438657,47.1057915 32.6809435,48.0054346 32.4456113,48.6905053 C33.4005583,47.5977138 36.9722261,45.2962085 37.8345018,47.5756254 C38.8558799,50.2742226 32.7244558,54.1722332 34.2532014,53.9734382 C35.7437491,53.7796254 38.1585194,52.2502155 39.18953,50.8596466 L42.0274664,25.345788 C42.0274664,25.345788 39.1717597,27.7090742 21.0038516,27.7090742 C2.83577739,27.7090742 0.275522968,25.394947 0.275522968,25.394947 L2.69162191,48.6830318 C3.9740742,45.0381237 7.0194417,37.6656007 11.8197527,37.9130565 C14.0033428,38.0256572 16.9183392,42.2302473 14.4213604,42.372742 C13.3644417,42.4328622 13.2571555,40.2740177 12.0055936,39.9569753 C11.1024629,39.7281201 9.84508834,40.4623498 9.03246996,41.2578622 C7.41188339,42.8439046 3.92640989,49.1015477 4.38694346,52.221318 C4.97369611,56.1987138 9.87548057,50.8392191 10.7048728,49.2480283 C11.2889682,48.1271696 11.6835689,44.8062792 12.9610389,45.1547102 C14.2386749,45.5031413 12.8496007,48.9303216 11.9235512,51.9604099 C10.8832403,55.3628445 10.3363463,58.9519505 9.03246996,58.5390813 C7.72842756,58.1265442 9.85256184,53.7341201 9.77566784,52.9645159 C8.55001413,54.0953392 6.2920212,56.9581873 3.40326502,55.541212 L4.90377739,70.0029293 C4.90377739,70.0029293 8.89180212,73.1539223 20.9053675,73.1539223 C32.9189329,73.1539223 37.0546007,70.0520883 37.0546007,70.0520883 L38.9178269,53.3019859 C37.3933993,54.7863887 32.568841,57.4223746 32.2599364,54.4510777" id="Shape" fill="#D34A47"></path>
                </g>
            </g>
        </g>
    </g>
</svg>