<?xml version="1.0" encoding="UTF-8"?>
<svg width="32px" height="36px" viewBox="0 0 32 36" version="1.1" xmlns="http://www.w3.org/2000/svg" xmlns:xlink="http://www.w3.org/1999/xlink">
    <!-- Generator: Sketch 45.2 (43514) - http://www.bohemiancoding.com/sketch -->
    <title>Icon</title>
    <desc>Created with Sketch.</desc>
    <defs></defs>
    <g id="New" stroke="none" stroke-width="1" fill="none" fill-rule="evenodd">
        <g id="2" transform="translate(-475.000000, -1690.000000)" fill-rule="nonzero" fill="#8CC84B">
            <g id="Setup" transform="translate(250.000000, 1448.000000)">
                <g id="Button" transform="translate(213.000000, 230.000000)">
                    <g id="Icon" transform="translate(12.000000, 12.000000)">
                        <path d="M14.563,0.4475 C15.43325,-0.050625 16.56675,-0.052875 17.43625,0.4475 C21.810625,2.91925 26.186375,5.387125 30.56,7.860375 C31.382625,8.32375 31.932875,9.23925 31.9245,10.187125 L31.9245,25.058125 C31.930625,26.04525 31.326,26.982625 30.458125,27.4355 C26.098125,29.893625 21.740375,32.35475 17.381125,34.812875 C16.492875,35.32075 15.336625,35.281625 14.476125,34.732125 C13.169,33.974375 11.859625,33.220375 10.552375,32.463375 C10.28525,32.304125 9.984125,32.177375 9.7955,31.918375 C9.96225,31.693625 10.260375,31.665625 10.502625,31.5675 C11.04825,31.394 11.549375,31.1155 12.050625,30.84525 C12.177375,30.7585 12.332125,30.79175 12.453625,30.869375 C13.571375,31.51025 14.67925,32.16975 15.80075,32.8045 C16.04,32.942625 16.28225,32.75925 16.48675,32.64525 C20.76525,30.227125 25.049,27.818125 29.32675,25.39925 C29.48525,25.323 29.572875,25.15475 29.56,24.981125 C29.563,20.0755 29.56075,15.169 29.5615,10.263375 C29.579625,10.066375 29.465625,9.88525 29.2875,9.804625 C24.942625,7.35775 20.6,4.907125 16.255875,2.459625 C16.1018166,2.35371163 15.8984932,2.35341364 15.744125,2.458875 C11.4,4.907125 7.058125,7.36 2.714,9.80675 C2.5365,9.8875 2.417375,10.065625 2.4385,10.263375 C2.43925,15.169 2.4385,20.0755 2.4385,24.981875 C2.42307209,25.1553824 2.51734638,25.320138 2.67475,25.39475 C3.834,26.052125 4.99475,26.704875 6.15475,27.36 C6.80825,27.71175 7.610625,27.92075 8.330625,27.65125 C8.966,27.423375 9.411375,26.775 9.39925,26.100375 C9.40525,21.223375 9.39625,16.345625 9.40375,11.469375 C9.387875,11.252875 9.59325,11.074 9.80375,11.094375 C10.36075,11.090625 10.9185,11.086875 11.4755,11.095875 C11.708,11.090625 11.868,11.32375 11.83925,11.541875 C11.837,16.44975 11.84525,21.35775 11.8355,26.265625 C11.837,27.573625 11.299625,28.996875 10.08975,29.636875 C8.59925,30.409 6.757,30.24525 5.2845,29.504875 C4.00975,28.868625 2.79325,28.11775 1.541125,27.436125 C0.671,26.98575 0.069375,26.044625 0.0755,25.05825 L0.0755,10.187125 C0.066375,9.219625 0.6385,8.2875 1.48675,7.830875 C5.846,5.37075 10.2045,2.90875 14.563,0.4475 Z" id="Shape"></path>
                        <path d="M18.366,10.74875 C20.26725,10.626375 22.302625,10.67625 24.0135,11.612875 C25.338125,12.330625 26.0725,13.837 26.095875,15.308625 C26.058875,15.507125 25.851375,15.616625 25.661875,15.603 C25.11025,15.60225 24.5585,15.6105 24.006875,15.59925 C23.772875,15.60825 23.636875,15.3925 23.6075,15.185625 C23.449,14.4815 23.065,13.784125 22.40225,13.4445 C21.384875,12.935125 20.20525,12.96075 19.095875,12.971375 C18.286,13.014375 17.415125,13.0845 16.729,13.56075 C16.20225,13.9215 16.04225,14.64975 16.23025,15.23625 C16.4075,15.657375 16.893625,15.79325 17.291375,15.9185 C19.582625,16.51775 22.010625,16.458125 24.258125,17.24675 C25.188625,17.56825 26.098875,18.19325 26.417375,19.1675 C26.834,20.47325 26.651375,22.034 25.722375,23.08225 C24.969,23.944875 23.87175,24.414375 22.777375,24.669375 C21.3215,24.994 19.810625,25.00225 18.332125,24.858125 C16.941875,24.699625 15.495125,24.334375 14.421875,23.387125 C13.504125,22.59025 13.055875,21.348625 13.100375,20.15025 C13.111,19.947875 13.3125,19.80675 13.506375,19.823375 C14.061875,19.818875 14.617375,19.817375 15.172875,19.824125 C15.39475,19.80825 15.55925,20 15.570625,20.209125 C15.673125,20.88 15.92525,21.584125 16.51025,21.981875 C17.63925,22.71025 19.055875,22.660375 20.348625,22.68075 C21.419625,22.63325 22.621875,22.618875 23.495875,21.911 C23.957,21.50725 24.093625,20.83175 23.969,20.250625 C23.834,19.76 23.32075,19.531375 22.88,19.381875 C20.618125,18.666375 18.163,18.926 15.923,18.116875 C15.013625,17.7955 14.13425,17.187875 13.784875,16.253625 C13.297375,14.931375 13.52075,13.295875 14.547125,12.283 C15.547875,11.2755 16.9925,10.8875 18.366,10.748625 L18.366,10.74875 Z" id="Shape"></path>
                    </g>
                </g>
            </g>
        </g>
    </g>
</svg>